<?xml version="1.0" encoding="UTF-8" standalone="no"?>
<!-- Created with Inkscape (http://www.inkscape.org/) -->

<svg
   width="297mm"
   height="210mm"
   viewBox="0 0 1122.5197 793.70081"
   version="1.1"
   id="svg1"
   inkscape:version="1.3.2 (091e20e, 2023-11-25)"
   sodipodi:docname="permissible-partition.svg"
   xmlns:inkscape="http://www.inkscape.org/namespaces/inkscape"
   xmlns:sodipodi="http://sodipodi.sourceforge.net/DTD/sodipodi-0.dtd"
   xmlns:xlink="http://www.w3.org/1999/xlink"
   xmlns="http://www.w3.org/2000/svg"
   xmlns:svg="http://www.w3.org/2000/svg"
   xmlns:ns3="http://www.iki.fi/pav/software/textext/">
  <sodipodi:namedview
     id="namedview1"
     pagecolor="#ffffff"
     bordercolor="#000000"
     borderopacity="0.25"
     inkscape:showpageshadow="2"
     inkscape:pageopacity="0.0"
     inkscape:pagecheckerboard="0"
     inkscape:deskcolor="#d1d1d1"
     inkscape:document-units="mm"
     inkscape:zoom="0.81233189"
     inkscape:cx="619.20504"
     inkscape:cy="437.0135"
     inkscape:window-width="1424"
     inkscape:window-height="916"
     inkscape:window-x="57"
     inkscape:window-y="525"
     inkscape:window-maximized="0"
     inkscape:current-layer="layer1" />
  <defs
     id="defs1">
    <inkscape:path-effect
       effect="bspline"
       id="path-effect16"
       is_visible="true"
       lpeversion="1.3"
       weight="33.333333"
       steps="2"
       helper_size="0"
       apply_no_weight="true"
       apply_with_weight="true"
       only_selected="false"
       uniform="false" />
    <inkscape:path-effect
       effect="powermask"
       id="path-effect15"
       is_visible="true"
       lpeversion="1"
       uri="#mask-powermask-path-effect15"
       invert="false"
       hide_mask="false"
       background="true"
       background_color="#ffffffff" />
    <inkscape:path-effect
       effect="bspline"
       id="path-effect14"
       is_visible="true"
       lpeversion="1.3"
       weight="33.333333"
       steps="2"
       helper_size="0"
       apply_no_weight="true"
       apply_with_weight="true"
       only_selected="false"
       uniform="false" />
    <linearGradient
       id="linearGradient7"
       inkscape:collect="always">
      <stop
         style="stop-color:#92faab;stop-opacity:0.98431373;"
         offset="0"
         id="stop7" />
      <stop
         style="stop-color:#e76350;stop-opacity:0.21176471;"
         offset="1"
         id="stop8" />
    </linearGradient>
    <linearGradient
       id="linearGradient5"
       inkscape:collect="always">
      <stop
         style="stop-color:#ff3636;stop-opacity:0;"
         offset="0"
         id="stop6" />
      <stop
         style="stop-color:#91fdac;stop-opacity:1;"
         offset="1"
         id="stop5" />
    </linearGradient>
    <inkscape:path-effect
       effect="bspline"
       id="path-effect4"
       is_visible="true"
       lpeversion="1.3"
       weight="33.333333"
       steps="2"
       helper_size="0"
       apply_no_weight="true"
       apply_with_weight="true"
       only_selected="false"
       uniform="false" />
    <inkscape:path-effect
       effect="bspline"
       id="path-effect3"
       is_visible="true"
       lpeversion="1.3"
       weight="33.333333"
       steps="2"
       helper_size="0"
       apply_no_weight="true"
       apply_with_weight="true"
       only_selected="false"
       uniform="false" />
    <inkscape:path-effect
       effect="bspline"
       id="path-effect2"
       is_visible="true"
       lpeversion="1.3"
       weight="33.333333"
       steps="2"
       helper_size="0"
       apply_no_weight="true"
       apply_with_weight="true"
       only_selected="false"
       uniform="false" />
    <inkscape:path-effect
       effect="bspline"
       id="path-effect1"
       is_visible="true"
       lpeversion="1.3"
       weight="33.333333"
       steps="2"
       helper_size="0"
       apply_no_weight="true"
       apply_with_weight="true"
       only_selected="false"
       uniform="false" />
    <linearGradient
       inkscape:collect="always"
       xlink:href="#linearGradient5"
       id="linearGradient6"
       x1="226.15742"
       y1="405.24247"
       x2="984.43966"
       y2="405.24247"
       gradientUnits="userSpaceOnUse" />
    <linearGradient
       inkscape:collect="always"
       xlink:href="#linearGradient7"
       id="linearGradient8"
       x1="199.8889"
       y1="651.67095"
       x2="234.13596"
       y2="651.67095"
       gradientUnits="userSpaceOnUse"
       gradientTransform="translate(194.14188,-15.702652)" />
    <clipPath
       clipPathUnits="userSpaceOnUse"
       id="clipPath16">
      <path
         style="fill:#000000;fill-opacity:1;fill-rule:evenodd;stroke:#777777;stroke-width:2.51339;stroke-linejoin:round;stroke-dasharray:none;stroke-opacity:1"
         d="m 360.09209,191.67122 c 65.908,5.28417 208.86878,26.42084 280.45169,37.37177 71.58291,10.95092 71.78793,11.71607 70.32705,13.00127 -1.46087,1.2852 -4.58752,3.09037 -10.13419,6.29274 -5.54667,3.20237 -13.51298,7.80173 -20.80871,12.01392 -7.29573,4.21219 -13.92045,8.03697 -18.75651,10.21662 -4.83607,2.17965 -7.88321,2.71407 -10.7519,3.94205 -2.86869,1.22799 -5.55876,3.14947 -9.30577,5.55139 -3.74701,2.40193 -8.5507,5.28414 -14.50747,9.31938 -5.95677,4.03523 -13.06624,9.22322 -19.4073,14.31529 -6.34106,5.09207 -11.91334,10.08791 -16.62109,15.27606 -4.70776,5.18814 -8.55071,10.56828 -11.33693,15.46819 -2.78621,4.89991 -4.51555,9.31931 -5.4763,14.89177 -0.96076,5.57246 -1.15291,12.29763 -0.38429,18.15831 0.76863,5.86067 2.49796,10.85651 4.61165,16.52505 2.11369,5.66853 4.61161,12.00941 7.10961,17.87008 2.49799,5.86068 4.99592,11.24082 6.14883,14.21918 1.1529,2.97835 0.96075,3.55479 -3.5549,1.63323 -4.51565,-1.92156 -13.35445,-6.34095 -41.12082,-18.4467 -27.76637,-12.10575 -74.45827,-31.89697 -98.09292,-42.27316 -23.63465,-10.3762 -24.2111,-11.33694 -25.07579,-14.5075 -0.86469,-3.17055 -2.01758,-8.55069 -8.16654,-19.79173 -6.14897,-11.24103 -17.29354,-28.34218 -25.36396,-39.5831 -8.07041,-11.24093 -13.06625,-16.62106 -24.78768,-28.24641 -11.72143,-11.62535 -30.16761,-29.4951 -44.9634,-43.71442 -14.79579,-14.21933 -25.94036,-24.78745 39.96764,-19.50328 z"
         id="path17"
         inkscape:path-effect="#path-effect16"
         inkscape:original-d="m 283.0393,175.81871 c 142.96079,21.13667 285.92157,42.27336 428.88236,63.41003 0.20503,0.76517 0.41005,1.53032 0.61507,2.29547 -3.12677,1.80525 -6.25342,3.61042 -9.38013,5.41563 -7.96663,4.59953 -15.93294,9.19888 -23.89941,13.79833 -6.62499,3.82494 -13.24971,7.64972 -19.87457,11.47459 -3.04727,0.53443 -6.09441,1.06884 -9.14162,1.60327 -2.69017,1.92155 -5.38024,3.84303 -8.07036,5.76454 -4.8039,2.88234 -9.60759,5.76455 -14.41138,8.64683 -7.10975,5.18819 -14.21922,10.37618 -21.32883,15.56428 -5.57251,4.99604 -11.14479,9.99188 -16.71719,14.98782 -3.84311,5.38035 -7.68606,10.76049 -11.52909,16.14073 -1.7294,4.41958 -3.45873,8.83898 -5.1881,13.25846 -0.19215,6.72544 -0.3843,13.45061 -0.57645,20.17592 1.7294,4.99604 3.45873,9.99188 5.18809,14.98782 2.49802,6.34113 4.99594,12.68201 7.49391,19.02301 2.49802,5.38035 4.99595,10.76049 7.49392,16.14073 -0.19216,0.57647 -0.38431,1.15291 -0.57646,1.72937 -8.83915,-4.41958 -17.67795,-8.83897 -26.51692,-13.25846 -46.69377,-19.79201 -93.38567,-39.58323 -140.07851,-59.37484 -0.57646,-0.96078 -1.15291,-1.92152 -1.72936,-2.88228 -1.15293,-5.38035 -2.30582,-10.76049 -3.45873,-16.14073 -11.14502,-17.10183 -22.28959,-34.20298 -33.43438,-51.30447 -4.99604,-5.38036 -9.99188,-10.76049 -14.98782,-16.14074 -18.44692,-17.87045 -36.89311,-35.74019 -55.33966,-53.6103 -11.14502,-10.56855 -22.28958,-21.13668 -33.43438,-31.70501 z" />
    </clipPath>
    <clipPath
       clipPathUnits="userSpaceOnUse"
       id="clipPath21">
      <rect
         style="opacity:0.5;fill:#000000;fill-opacity:1;fill-rule:evenodd;stroke:#777777;stroke-width:0.377953;stroke-linejoin:round;stroke-dasharray:none;stroke-opacity:1"
         id="rect22"
         width="32.81773"
         height="33.084541"
         x="394.07959"
         y="667.02704" />
    </clipPath>
  </defs>
  <g
     inkscape:label="Layer 1"
     inkscape:groupmode="layer"
     id="layer1">
    <g
       transform="matrix(4.3603,0,0,4.3603,472.37615,27.949024)"
       ns3:version="1.10.2"
       ns3:texconverter="pdflatex"
       ns3:pdfconverter="inkscape"
       ns3:text="$\\mathcal{X} \\times \\mathcal{Y}$"
       ns3:preamble="/Users/alansun/Library/Application Support/org.inkscape.Inkscape/config/inkscape/extensions/textext/default_packages.tex"
       ns3:scale="3.2702357037909495"
       ns3:alignment="middle center"
       ns3:stroke-to-path="0"
       id="g7847"
       ns3:jacobian_sqrt="4.3603">
      <defs
         id="id-9f131e1e-dabe-4fe7-b521-f5402c9fa50f">
        <g
           id="id-8748998a-ea94-4930-ae34-40e878e93e86">
          <g
             id="id-afc9084f-b475-49ed-8519-040d12963f39">
            <path
               d="M 4.78125,-5.5 C 4.6875,-6.234375 4.59375,-6.8125 3.890625,-6.8125 c -0.9375,0 -1.59375,0.6875 -1.59375,0.953125 0,0.078125 0.0625,0.078125 0.109375,0.078125 0.109375,0 0.546875,-0.125 0.734375,-0.46875 L 3.15625,-6.265625 c 0.546875,0 0.6875,0.3125 0.78125,1.34375 l 0.140625,1.46875 c -0.359375,0.1875 -1.703125,1 -2.421875,1.5 C 0.515625,-1.140625 0.5,-0.84375 0.5,-0.5625 0.5,-0.21875 0.671875,0 0.984375,0 c 0.296875,0 0.75,-0.328125 0.75,-0.484375 0,-0.046875 -0.03125,-0.046875 -0.0625,-0.0625 C 1.578125,-0.5625 1.34375,-0.59375 1.34375,-0.984375 c 0,-0.265625 0,-0.390625 1.0625,-1.09375 0.609375,-0.40625 1.1875,-0.71875 1.703125,-1.046875 0,0.015625 0.140625,1.515625 0.171875,1.671875 C 4.359375,-0.65625 4.421875,0 5.15625,0 c 0.953125,0 1.609375,-0.671875 1.609375,-0.953125 0,-0.078125 -0.0625,-0.078125 -0.109375,-0.078125 -0.109375,0 -0.546875,0.140625 -0.734375,0.46875 -0.03125,0.015625 -0.078125,0.015625 -0.09375,0.015625 -0.578125,0 -0.640625,-0.625 -0.71875,-1.46875 C 5.078125,-2.328125 5.046875,-2.59375 4.953125,-3.625 8.0625,-5.484375 8.0625,-5.828125 8.0625,-6.25 c 0,-0.34375 -0.1875,-0.5625 -0.46875,-0.5625 -0.3125,0 -0.78125,0.34375 -0.78125,0.484375 0,0.0625 0.0625,0.0625 0.078125,0.0625 0.078125,0.015625 0.3125,0.0625 0.3125,0.4375 0,0.25 -0.03125,0.40625 -0.875,0.984375 -0.296875,0.203125 -0.71875,0.453125 -1.40625,0.875 z m 0,0"
               id="id-187c60f7-2541-49a9-a727-e5fefdcaa035" />
          </g>
          <g
             id="id-7e05cc57-891e-450f-aa95-e8c9a008e75d">
            <path
               d="M 3.875,-2.765625 1.890625,-4.75 C 1.765625,-4.875 1.75,-4.890625 1.671875,-4.890625 1.5625,-4.890625 1.46875,-4.8125 1.46875,-4.6875 c 0,0.0625 0.015625,0.078125 0.125,0.1875 l 2,2 -2,2.015625 c -0.109375,0.109375 -0.125,0.125 -0.125,0.1875 0,0.125 0.09375,0.203125 0.203125,0.203125 0.078125,0 0.09375,-0.015625 0.21875,-0.140625 L 3.875,-2.21875 l 2.0625,2.0625 c 0.015625,0.015625 0.078125,0.0625 0.140625,0.0625 0.125,0 0.203125,-0.078125 0.203125,-0.203125 0,-0.015625 0,-0.046875 -0.03125,-0.109375 C 6.234375,-0.421875 4.65625,-1.984375 4.15625,-2.5 l 1.828125,-1.8125 c 0.046875,-0.0625 0.203125,-0.1875 0.25,-0.25 0,-0.015625 0.046875,-0.0625 0.046875,-0.125 0,-0.125 -0.078125,-0.203125 -0.203125,-0.203125 C 6,-4.890625 5.96875,-4.859375 5.859375,-4.75 Z m 0,0"
               id="id-e11f8eb0-e81c-4ac2-bf2a-d6d27793dccc" />
          </g>
          <g
             id="id-80bed7c1-6286-4249-b52e-92169cd1b6c0">
            <path
               d="m 4.0625,-0.96875 c 0.03125,-0.375 0.046875,-0.921875 0.046875,-1.1875 0,-1.046875 -0.046875,-4.65625 -2.140625,-4.65625 -0.6875,0 -1.296875,0.609375 -1.296875,0.765625 0,0.078125 0.078125,0.078125 0.109375,0.078125 0.0625,0 0.359375,-0.046875 0.578125,-0.34375 0.890625,0.015625 1.453125,0.65625 1.75,1.921875 0.1875,0.796875 0.265625,1.671875 0.265625,2.59375 0,0.59375 -0.046875,1.28125 -0.0625,1.40625 0,0.078125 0,0.09375 -0.015625,0.109375 -0.03125,0.015625 -1.03125,0.859375 -1.515625,0.859375 -0.078125,0 -0.890625,0 -1.078125,-0.828125 C 0.6875,-0.3125 0.671875,-0.375 0.625,-0.375 c -0.125,0 -0.3125,0.328125 -0.3125,0.578125 0,0.421875 0.375,1.140625 1.21875,1.140625 0.765625,0 2.40625,-1.46875 3.28125,-2.46875 1.984375,-2.296875 2.328125,-4.015625 2.328125,-4.53125 0,-0.84375 -0.5625,-1.15625 -0.9375,-1.15625 -0.296875,0 -0.375,0.5 -0.375,0.609375 0,0.140625 0.03125,0.15625 0.1875,0.171875 C 6.59375,-5.96875 6.75,-5.5 6.75,-5.203125 c 0,0.3125 -0.46875,2.078125 -2.6875,4.234375 z m 0,0"
               id="id-86b71347-8e25-4245-9942-0cb082b5a556" />
          </g>
        </g>
      </defs>
      <g
         fill="#000000"
         fill-opacity="1"
         id="id-72630008-f55c-4c75-90f4-616a881fb31c"
         transform="translate(-149.212,-127.953)">
        <g
           transform="translate(148.712,134.765)"
           id="g8504">
          <path
             d="M 4.78125,-5.5 C 4.6875,-6.234375 4.59375,-6.8125 3.890625,-6.8125 c -0.9375,0 -1.59375,0.6875 -1.59375,0.953125 0,0.078125 0.0625,0.078125 0.109375,0.078125 0.109375,0 0.546875,-0.125 0.734375,-0.46875 L 3.15625,-6.265625 c 0.546875,0 0.6875,0.3125 0.78125,1.34375 l 0.140625,1.46875 c -0.359375,0.1875 -1.703125,1 -2.421875,1.5 C 0.515625,-1.140625 0.5,-0.84375 0.5,-0.5625 0.5,-0.21875 0.671875,0 0.984375,0 c 0.296875,0 0.75,-0.328125 0.75,-0.484375 0,-0.046875 -0.03125,-0.046875 -0.0625,-0.0625 C 1.578125,-0.5625 1.34375,-0.59375 1.34375,-0.984375 c 0,-0.265625 0,-0.390625 1.0625,-1.09375 0.609375,-0.40625 1.1875,-0.71875 1.703125,-1.046875 0,0.015625 0.140625,1.515625 0.171875,1.671875 C 4.359375,-0.65625 4.421875,0 5.15625,0 c 0.953125,0 1.609375,-0.671875 1.609375,-0.953125 0,-0.078125 -0.0625,-0.078125 -0.109375,-0.078125 -0.109375,0 -0.546875,0.140625 -0.734375,0.46875 -0.03125,0.015625 -0.078125,0.015625 -0.09375,0.015625 -0.578125,0 -0.640625,-0.625 -0.71875,-1.46875 C 5.078125,-2.328125 5.046875,-2.59375 4.953125,-3.625 8.0625,-5.484375 8.0625,-5.828125 8.0625,-6.25 c 0,-0.34375 -0.1875,-0.5625 -0.46875,-0.5625 -0.3125,0 -0.78125,0.34375 -0.78125,0.484375 0,0.0625 0.0625,0.0625 0.078125,0.0625 0.078125,0.015625 0.3125,0.0625 0.3125,0.4375 0,0.25 -0.03125,0.40625 -0.875,0.984375 -0.296875,0.203125 -0.71875,0.453125 -1.40625,0.875 z m 0,0"
             id="id-7bce9383-cca9-4af2-a266-d299293af2f3" />
        </g>
      </g>
      <g
         fill="#000000"
         fill-opacity="1"
         id="id-e2556ed0-8e59-499c-87bb-0bc21c25477b"
         transform="translate(-149.212,-127.953)">
        <g
           transform="translate(159.495,134.765)"
           id="g8447">
          <path
             d="M 3.875,-2.765625 1.890625,-4.75 C 1.765625,-4.875 1.75,-4.890625 1.671875,-4.890625 1.5625,-4.890625 1.46875,-4.8125 1.46875,-4.6875 c 0,0.0625 0.015625,0.078125 0.125,0.1875 l 2,2 -2,2.015625 c -0.109375,0.109375 -0.125,0.125 -0.125,0.1875 0,0.125 0.09375,0.203125 0.203125,0.203125 0.078125,0 0.09375,-0.015625 0.21875,-0.140625 L 3.875,-2.21875 l 2.0625,2.0625 c 0.015625,0.015625 0.078125,0.0625 0.140625,0.0625 0.125,0 0.203125,-0.078125 0.203125,-0.203125 0,-0.015625 0,-0.046875 -0.03125,-0.109375 C 6.234375,-0.421875 4.65625,-1.984375 4.15625,-2.5 l 1.828125,-1.8125 c 0.046875,-0.0625 0.203125,-0.1875 0.25,-0.25 0,-0.015625 0.046875,-0.0625 0.046875,-0.125 0,-0.125 -0.078125,-0.203125 -0.203125,-0.203125 C 6,-4.890625 5.96875,-4.859375 5.859375,-4.75 Z m 0,0"
             id="id-7df9c385-b748-4bb1-90cd-adef432995f5" />
        </g>
      </g>
      <g
         fill="#000000"
         fill-opacity="1"
         id="id-c6d66e23-22cb-44a9-96e5-5f9115785460"
         transform="translate(-149.212,-127.953)">
        <g
           transform="translate(169.455,134.765)"
           id="g1548">
          <path
             d="m 4.0625,-0.96875 c 0.03125,-0.375 0.046875,-0.921875 0.046875,-1.1875 0,-1.046875 -0.046875,-4.65625 -2.140625,-4.65625 -0.6875,0 -1.296875,0.609375 -1.296875,0.765625 0,0.078125 0.078125,0.078125 0.109375,0.078125 0.0625,0 0.359375,-0.046875 0.578125,-0.34375 0.890625,0.015625 1.453125,0.65625 1.75,1.921875 0.1875,0.796875 0.265625,1.671875 0.265625,2.59375 0,0.59375 -0.046875,1.28125 -0.0625,1.40625 0,0.078125 0,0.09375 -0.015625,0.109375 -0.03125,0.015625 -1.03125,0.859375 -1.515625,0.859375 -0.078125,0 -0.890625,0 -1.078125,-0.828125 C 0.6875,-0.3125 0.671875,-0.375 0.625,-0.375 c -0.125,0 -0.3125,0.328125 -0.3125,0.578125 0,0.421875 0.375,1.140625 1.21875,1.140625 0.765625,0 2.40625,-1.46875 3.28125,-2.46875 1.984375,-2.296875 2.328125,-4.015625 2.328125,-4.53125 0,-0.84375 -0.5625,-1.15625 -0.9375,-1.15625 -0.296875,0 -0.375,0.5 -0.375,0.609375 0,0.140625 0.03125,0.15625 0.1875,0.171875 C 6.59375,-5.96875 6.75,-5.5 6.75,-5.203125 c 0,0.3125 -0.46875,2.078125 -2.6875,4.234375 z m 0,0"
             id="id-eabc52a7-b56e-4eb2-908d-bd223b2ca344" />
        </g>
      </g>
    </g>
    <g
       id="g6"
       transform="matrix(0.83647017,0,0,0.83647017,34.844589,13.38742)">
      <path
         style="fill:url(#linearGradient6);fill-opacity:0.996078;fill-rule:evenodd;stroke:#000000;stroke-width:3.40157;stroke-dasharray:none"
         d="m 442.92082,108.99617 c -16.05216,5.15255 -23.18645,8.7197 -48.75145,26.55576 -25.565,17.83606 -69.55894,49.93975 -104.43797,99.88049 -34.87904,49.94075 -60.64125,117.71519 -61.83007,179.74449 -1.18882,62.02929 22.19535,118.30983 68.56897,146.45066 46.37361,28.14083 115.73342,28.14083 155.56667,50.9314 39.83325,22.79056 50.13814,68.36988 80.26122,88.1873 30.12308,19.81743 80.06214,13.8723 135.55172,-10.89999 55.48958,-24.77229 116.52621,-68.3699 180.33918,-111.96881 63.81297,-43.59891 130.39839,-87.19651 134.3613,-119.30104 3.96292,-32.10452 -54.69567,-52.7143 -95.91627,-83.62999 -41.22061,-30.91569 -65.00112,-72.13524 -61.23549,-111.96877 3.76564,-39.83353 35.07664,-78.2787 13.07848,-102.65431 -21.99816,-24.37561 -97.30311,-34.6805 -161.11594,-43.9948 -63.81283,-9.3143 -116.12995,-17.637478 -154.7743,-18.430109 -38.64435,-0.792632 -63.61388,5.945179 -79.66605,11.097719 z"
         id="path1"
         inkscape:path-effect="#path-effect1"
         inkscape:original-d="m 434.00296,110.58157 c -7.1343,3.56715 -14.26859,7.1343 -21.40289,10.70145 -43.9957,32.10497 -87.98964,64.20865 -131.98446,96.31299 -25.76324,67.77716 -51.52546,135.5516 -77.2882,203.32741 23.38511,56.28278 46.76928,112.56332 70.15391,168.84498 69.36259,0 138.7224,0 208.0836,0 10.3053,45.58113 20.61019,91.16045 30.91528,136.74066 49.94107,-5.94536 99.88013,-11.89049 149.82021,-17.83573 C 723.33949,665.07399 784.37612,621.47638 845.41398,577.87791 912.00207,534.27857 978.58749,490.68097 1045.1742,447.0825 986.51331,426.4719 927.85472,405.86213 869.19497,385.25194 845.41351,344.03075 821.633,302.8112 797.85201,261.59083 829.16427,223.14414 860.47527,184.69897 891.7869,146.25305 816.47895,135.94775 741.174,125.64286 665.86756,115.33777 613.54834,107.01426 561.23122,98.691083 508.91306,90.367739 c -24.97054,6.73808 -49.94007,13.475891 -74.9101,20.213831 z"
         transform="translate(-13.079541,-14.26859)" />
      <path
         style="fill:none;fill-opacity:0.996078;fill-rule:evenodd;stroke:#000000;stroke-width:3.40157;stroke-dasharray:none"
         d="m 294.50201,192.72557 c 72.54277,63.52005 145.08554,127.04009 171.43172,195.97451 26.34618,68.93442 6.49657,143.28026 -13.35344,217.62757"
         id="path2"
         inkscape:path-effect="#path-effect2"
         inkscape:original-d="m 294.50201,192.72557 c 72.54277,63.52005 145.08554,127.04009 217.62831,190.56013 -19.85041,74.3488 -39.70002,148.69464 -59.55003,223.04195"
         transform="matrix(0.98862654,0,0,0.99491422,5.4594037,3.0893552)" />
      <path
         style="fill:none;fill-opacity:0.996078;fill-rule:evenodd;stroke:#000000;stroke-width:3.40157;stroke-dasharray:none"
         d="M 470.02417,400.39096 C 592.84941,452.93824 715.67466,505.48552 838.4999,558.0328"
         id="path3"
         inkscape:path-effect="#path-effect3"
         inkscape:original-d="M 470.02417,400.39096 C 592.84941,452.93824 715.67466,505.48552 838.4999,558.0328" />
      <path
         style="fill:none;fill-opacity:0.996078;fill-rule:evenodd;stroke:#000000;stroke-width:3.40157;stroke-dasharray:none"
         d="M 666.35114,481.6297 C 648.62046,445.84597 630.88978,410.06224 654.90745,375.24529 678.92512,340.42835 744.6885,306.57955 810.4532,272.73008"
         id="path4"
         inkscape:path-effect="#path-effect4"
         inkscape:original-d="M 666.35114,481.6297 C 648.62046,445.84597 630.88977,410.06224 613.15909,374.2785 678.92512,340.42835 744.6885,306.57955 810.4532,272.73008"
         transform="matrix(1.0131166,0,0,1.019065,-8.4114949,-6.0674013)" />
      <path
         style="fill:none;fill-opacity:0.996078;fill-rule:evenodd;stroke:#000000;stroke-width:3.42269;stroke-dasharray:none"
         d="M 812.77727,270.28727 297.58722,194.32926 800.4866,268.61497"
         id="path5" />
    </g>
    <g
       transform="matrix(4.3603,0,0,4.3603,244.97128,357.15472)"
       ns3:version="1.10.2"
       ns3:texconverter="pdflatex"
       ns3:pdfconverter="inkscape"
       ns3:text="$s_1$"
       ns3:preamble="/Users/alansun/Library/Application Support/org.inkscape.Inkscape/config/inkscape/extensions/textext/default_packages.tex"
       ns3:scale="3.2702357037909495"
       ns3:alignment="middle center"
       ns3:stroke-to-path="0"
       id="g950"
       ns3:jacobian_sqrt="4.3603">
      <defs
         id="id-9d67d88e-f0d1-429b-8856-c789c7fa9e87">
        <g
           id="id-e26d63a0-e003-4974-bc2b-82285da9f984">
          <g
             id="id-f53170b1-34c3-407b-a26b-b771062aede1">
            <path
               d="M 3.890625,-3.734375 C 3.625,-3.71875 3.421875,-3.5 3.421875,-3.28125 c 0,0.140625 0.09375,0.296875 0.3125,0.296875 0.21875,0 0.453125,-0.171875 0.453125,-0.5625 C 4.1875,-4 3.765625,-4.40625 3,-4.40625 c -1.3125,0 -1.6875,1.015625 -1.6875,1.453125 0,0.78125 0.734375,0.921875 1.03125,0.984375 0.515625,0.109375 1.03125,0.21875 1.03125,0.765625 0,0.25 -0.21875,1.09375 -1.421875,1.09375 -0.140625,0 -0.90625,0 -1.140625,-0.53125 0.390625,0.046875 0.640625,-0.25 0.640625,-0.53125 0,-0.21875 -0.171875,-0.34375 -0.375,-0.34375 -0.265625,0 -0.5625,0.203125 -0.5625,0.65625 0,0.5625 0.578125,0.96875 1.421875,0.96875 1.625,0 2.015625,-1.203125 2.015625,-1.65625 0,-0.359375 -0.1875,-0.609375 -0.3125,-0.71875 -0.265625,-0.28125 -0.5625,-0.34375 -1,-0.421875 -0.359375,-0.078125 -0.75,-0.15625 -0.75,-0.609375 C 1.890625,-3.578125 2.125,-4.1875 3,-4.1875 c 0.25,0 0.75,0.078125 0.890625,0.453125 z m 0,0"
               id="id-1cb7070a-9adc-42b6-ba8f-4497d83fa051" />
          </g>
          <g
             id="id-3747eeef-1a71-4ce0-9995-3208fbc595d4">
            <path
               d="m 2.328125,-4.4375 c 0,-0.1875 0,-0.1875 -0.203125,-0.1875 -0.453125,0.4375 -1.078125,0.4375 -1.359375,0.4375 v 0.25 c 0.15625,0 0.625,0 1,-0.1875 v 3.546875 c 0,0.234375 0,0.328125 -0.6875,0.328125 H 0.8125 V 0 c 0.125,0 0.984375,-0.03125 1.234375,-0.03125 0.21875,0 1.09375,0.03125 1.25,0.03125 V -0.25 H 3.03125 c -0.703125,0 -0.703125,-0.09375 -0.703125,-0.328125 z m 0,0"
               id="id-3c2570eb-f34e-4eb1-a9c1-8ccb0943dd09" />
          </g>
        </g>
      </defs>
      <g
         fill="#000000"
         fill-opacity="1"
         id="id-9ec913d2-bb71-49ad-9136-650254ae0dc9"
         transform="translate(-149.228,-130.359)">
        <g
           transform="translate(148.712,134.765)"
           id="g6131">
          <path
             d="M 3.890625,-3.734375 C 3.625,-3.71875 3.421875,-3.5 3.421875,-3.28125 c 0,0.140625 0.09375,0.296875 0.3125,0.296875 0.21875,0 0.453125,-0.171875 0.453125,-0.5625 C 4.1875,-4 3.765625,-4.40625 3,-4.40625 c -1.3125,0 -1.6875,1.015625 -1.6875,1.453125 0,0.78125 0.734375,0.921875 1.03125,0.984375 0.515625,0.109375 1.03125,0.21875 1.03125,0.765625 0,0.25 -0.21875,1.09375 -1.421875,1.09375 -0.140625,0 -0.90625,0 -1.140625,-0.53125 0.390625,0.046875 0.640625,-0.25 0.640625,-0.53125 0,-0.21875 -0.171875,-0.34375 -0.375,-0.34375 -0.265625,0 -0.5625,0.203125 -0.5625,0.65625 0,0.5625 0.578125,0.96875 1.421875,0.96875 1.625,0 2.015625,-1.203125 2.015625,-1.65625 0,-0.359375 -0.1875,-0.609375 -0.3125,-0.71875 -0.265625,-0.28125 -0.5625,-0.34375 -1,-0.421875 -0.359375,-0.078125 -0.75,-0.15625 -0.75,-0.609375 C 1.890625,-3.578125 2.125,-4.1875 3,-4.1875 c 0.25,0 0.75,0.078125 0.890625,0.453125 z m 0,0"
             id="id-a4f2d998-2f9f-40d7-8072-af4e7c1ffcfa" />
        </g>
      </g>
      <g
         fill="#000000"
         fill-opacity="1"
         id="id-bbe8f275-65f3-4638-a8aa-f5d0c99c839e"
         transform="translate(-149.228,-130.359)">
        <g
           transform="translate(153.382,136.259)"
           id="g6303">
          <path
             d="m 2.328125,-4.4375 c 0,-0.1875 0,-0.1875 -0.203125,-0.1875 -0.453125,0.4375 -1.078125,0.4375 -1.359375,0.4375 v 0.25 c 0.15625,0 0.625,0 1,-0.1875 v 3.546875 c 0,0.234375 0,0.328125 -0.6875,0.328125 H 0.8125 V 0 c 0.125,0 0.984375,-0.03125 1.234375,-0.03125 0.21875,0 1.09375,0.03125 1.25,0.03125 V -0.25 H 3.03125 c -0.703125,0 -0.703125,-0.09375 -0.703125,-0.328125 z m 0,0"
             id="id-685a712e-e3ac-43f5-b9b1-d23b917c4cfa" />
        </g>
      </g>
    </g>
    <g
       transform="matrix(4.3603,0,0,4.3603,507.98458,525.4405)"
       ns3:version="1.10.2"
       ns3:texconverter="pdflatex"
       ns3:pdfconverter="inkscape"
       ns3:text="$s_2$"
       ns3:preamble="/Users/alansun/Library/Application Support/org.inkscape.Inkscape/config/inkscape/extensions/textext/default_packages.tex"
       ns3:scale="3.2702357037909495"
       ns3:alignment="middle center"
       ns3:stroke-to-path="0"
       id="g5411"
       ns3:jacobian_sqrt="4.3603">
      <defs
         id="id-b73de031-265b-45f7-9ba4-610162fe756a">
        <g
           id="id-1a4d295c-7098-4e2d-a98d-0af9db2b6259">
          <g
             id="id-7677c854-6cba-4c1f-8ab7-b329f498e4a9">
            <path
               d="M 3.890625,-3.734375 C 3.625,-3.71875 3.421875,-3.5 3.421875,-3.28125 c 0,0.140625 0.09375,0.296875 0.3125,0.296875 0.21875,0 0.453125,-0.171875 0.453125,-0.5625 C 4.1875,-4 3.765625,-4.40625 3,-4.40625 c -1.3125,0 -1.6875,1.015625 -1.6875,1.453125 0,0.78125 0.734375,0.921875 1.03125,0.984375 0.515625,0.109375 1.03125,0.21875 1.03125,0.765625 0,0.25 -0.21875,1.09375 -1.421875,1.09375 -0.140625,0 -0.90625,0 -1.140625,-0.53125 0.390625,0.046875 0.640625,-0.25 0.640625,-0.53125 0,-0.21875 -0.171875,-0.34375 -0.375,-0.34375 -0.265625,0 -0.5625,0.203125 -0.5625,0.65625 0,0.5625 0.578125,0.96875 1.421875,0.96875 1.625,0 2.015625,-1.203125 2.015625,-1.65625 0,-0.359375 -0.1875,-0.609375 -0.3125,-0.71875 -0.265625,-0.28125 -0.5625,-0.34375 -1,-0.421875 -0.359375,-0.078125 -0.75,-0.15625 -0.75,-0.609375 C 1.890625,-3.578125 2.125,-4.1875 3,-4.1875 c 0.25,0 0.75,0.078125 0.890625,0.453125 z m 0,0"
               id="id-fb1f37af-7111-443b-83e7-9fdb35dc9f19" />
          </g>
          <g
             id="id-1bfe1deb-2e7a-46c1-992f-4d97938f73d2">
            <path
               d="M 3.515625,-1.265625 H 3.28125 c -0.015625,0.15625 -0.09375,0.5625 -0.1875,0.625 C 3.046875,-0.59375 2.515625,-0.59375 2.40625,-0.59375 H 1.125 c 0.734375,-0.640625 0.984375,-0.84375 1.390625,-1.171875 0.515625,-0.40625 1,-0.84375 1,-1.5 0,-0.84375 -0.734375,-1.359375 -1.625,-1.359375 -0.859375,0 -1.453125,0.609375 -1.453125,1.25 0,0.34375 0.296875,0.390625 0.375,0.390625 0.15625,0 0.359375,-0.125 0.359375,-0.375 0,-0.125 -0.046875,-0.375 -0.40625,-0.375 C 0.984375,-4.21875 1.453125,-4.375 1.78125,-4.375 c 0.703125,0 1.0625,0.546875 1.0625,1.109375 0,0.609375 -0.4375,1.078125 -0.65625,1.328125 L 0.515625,-0.265625 C 0.4375,-0.203125 0.4375,-0.1875 0.4375,0 h 2.875 z m 0,0"
               id="id-1cf39ee9-ce7b-4717-89fd-8047e3aeb77e" />
          </g>
        </g>
      </defs>
      <g
         fill="#000000"
         fill-opacity="1"
         id="id-bbb76a6d-3301-4dd1-a4b4-af171fcaf562"
         transform="translate(-149.228,-130.359)">
        <g
           transform="translate(148.712,134.765)"
           id="g5096">
          <path
             d="M 3.890625,-3.734375 C 3.625,-3.71875 3.421875,-3.5 3.421875,-3.28125 c 0,0.140625 0.09375,0.296875 0.3125,0.296875 0.21875,0 0.453125,-0.171875 0.453125,-0.5625 C 4.1875,-4 3.765625,-4.40625 3,-4.40625 c -1.3125,0 -1.6875,1.015625 -1.6875,1.453125 0,0.78125 0.734375,0.921875 1.03125,0.984375 0.515625,0.109375 1.03125,0.21875 1.03125,0.765625 0,0.25 -0.21875,1.09375 -1.421875,1.09375 -0.140625,0 -0.90625,0 -1.140625,-0.53125 0.390625,0.046875 0.640625,-0.25 0.640625,-0.53125 0,-0.21875 -0.171875,-0.34375 -0.375,-0.34375 -0.265625,0 -0.5625,0.203125 -0.5625,0.65625 0,0.5625 0.578125,0.96875 1.421875,0.96875 1.625,0 2.015625,-1.203125 2.015625,-1.65625 0,-0.359375 -0.1875,-0.609375 -0.3125,-0.71875 -0.265625,-0.28125 -0.5625,-0.34375 -1,-0.421875 -0.359375,-0.078125 -0.75,-0.15625 -0.75,-0.609375 C 1.890625,-3.578125 2.125,-4.1875 3,-4.1875 c 0.25,0 0.75,0.078125 0.890625,0.453125 z m 0,0"
             id="id-4b123c6d-dc66-45a9-ac9c-ab3e097dc8b7" />
        </g>
      </g>
      <g
         fill="#000000"
         fill-opacity="1"
         id="id-61468f58-3718-4f38-9705-49669c28ce72"
         transform="translate(-149.228,-130.359)">
        <g
           transform="translate(153.382,136.259)"
           id="g2384">
          <path
             d="M 3.515625,-1.265625 H 3.28125 c -0.015625,0.15625 -0.09375,0.5625 -0.1875,0.625 C 3.046875,-0.59375 2.515625,-0.59375 2.40625,-0.59375 H 1.125 c 0.734375,-0.640625 0.984375,-0.84375 1.390625,-1.171875 0.515625,-0.40625 1,-0.84375 1,-1.5 0,-0.84375 -0.734375,-1.359375 -1.625,-1.359375 -0.859375,0 -1.453125,0.609375 -1.453125,1.25 0,0.34375 0.296875,0.390625 0.375,0.390625 0.15625,0 0.359375,-0.125 0.359375,-0.375 0,-0.125 -0.046875,-0.375 -0.40625,-0.375 C 0.984375,-4.21875 1.453125,-4.375 1.78125,-4.375 c 0.703125,0 1.0625,0.546875 1.0625,1.109375 0,0.609375 -0.4375,1.078125 -0.65625,1.328125 L 0.515625,-0.265625 C 0.4375,-0.203125 0.4375,-0.1875 0.4375,0 h 2.875 z m 0,0"
             id="id-918fa4e6-4165-444f-8ea4-65c12f40ed18" />
        </g>
      </g>
    </g>
    <g
       transform="matrix(4.3603,0,0,4.3603,774.6302,369.65675)"
       ns3:version="1.10.2"
       ns3:texconverter="pdflatex"
       ns3:pdfconverter="inkscape"
       ns3:text="$s_3$"
       ns3:preamble="/Users/alansun/Library/Application Support/org.inkscape.Inkscape/config/inkscape/extensions/textext/default_packages.tex"
       ns3:scale="3.2702357037909495"
       ns3:alignment="middle center"
       ns3:stroke-to-path="0"
       id="g794"
       ns3:jacobian_sqrt="4.3603">
      <defs
         id="id-1a4dc487-71a7-417a-9d51-0f9664a2bc93">
        <g
           id="id-6f99a264-76d0-4c71-99f0-4f88bbbd452c">
          <g
             id="id-128ad025-8ca1-4b41-9c65-2821afc10c70">
            <path
               d="M 3.890625,-3.734375 C 3.625,-3.71875 3.421875,-3.5 3.421875,-3.28125 c 0,0.140625 0.09375,0.296875 0.3125,0.296875 0.21875,0 0.453125,-0.171875 0.453125,-0.5625 C 4.1875,-4 3.765625,-4.40625 3,-4.40625 c -1.3125,0 -1.6875,1.015625 -1.6875,1.453125 0,0.78125 0.734375,0.921875 1.03125,0.984375 0.515625,0.109375 1.03125,0.21875 1.03125,0.765625 0,0.25 -0.21875,1.09375 -1.421875,1.09375 -0.140625,0 -0.90625,0 -1.140625,-0.53125 0.390625,0.046875 0.640625,-0.25 0.640625,-0.53125 0,-0.21875 -0.171875,-0.34375 -0.375,-0.34375 -0.265625,0 -0.5625,0.203125 -0.5625,0.65625 0,0.5625 0.578125,0.96875 1.421875,0.96875 1.625,0 2.015625,-1.203125 2.015625,-1.65625 0,-0.359375 -0.1875,-0.609375 -0.3125,-0.71875 -0.265625,-0.28125 -0.5625,-0.34375 -1,-0.421875 -0.359375,-0.078125 -0.75,-0.15625 -0.75,-0.609375 C 1.890625,-3.578125 2.125,-4.1875 3,-4.1875 c 0.25,0 0.75,0.078125 0.890625,0.453125 z m 0,0"
               id="id-6487976a-0d28-46c8-b143-5802d0e1402c" />
          </g>
          <g
             id="id-29328c99-c038-419e-bb82-2557d0036041">
            <path
               d="m 1.90625,-2.328125 c 0.546875,0 0.9375,0.375 0.9375,1.125 0,0.859375 -0.515625,1.125 -0.90625,1.125 -0.28125,0 -0.90625,-0.078125 -1.1875,-0.5 0.328125,0 0.40625,-0.234375 0.40625,-0.390625 0,-0.21875 -0.171875,-0.375 -0.390625,-0.375 -0.1875,0 -0.390625,0.125 -0.390625,0.40625 0,0.65625 0.71875,1.078125 1.5625,1.078125 0.96875,0 1.640625,-0.65625 1.640625,-1.34375 0,-0.546875 -0.4375,-1.09375 -1.203125,-1.25 0.71875,-0.265625 0.984375,-0.78125 0.984375,-1.21875 0,-0.546875 -0.625,-0.953125 -1.40625,-0.953125 -0.765625,0 -1.359375,0.375 -1.359375,0.9375 0,0.234375 0.15625,0.359375 0.359375,0.359375 0.21875,0 0.359375,-0.15625 0.359375,-0.34375 0,-0.203125 -0.140625,-0.359375 -0.359375,-0.375 0.25,-0.296875 0.71875,-0.375 0.984375,-0.375 0.3125,0 0.75,0.15625 0.75,0.75 0,0.296875 -0.09375,0.625 -0.28125,0.828125 -0.21875,0.265625 -0.421875,0.28125 -0.765625,0.3125 -0.171875,0.015625 -0.1875,0.015625 -0.21875,0.015625 -0.015625,0 -0.078125,0.015625 -0.078125,0.09375 0,0.09375 0.0625,0.09375 0.1875,0.09375 z m 0,0"
               id="id-40fabd66-7084-44cc-a46b-b2ace4d4ac5e" />
          </g>
        </g>
      </defs>
      <g
         fill="#000000"
         fill-opacity="1"
         id="id-a3f441b2-777a-4704-9bad-a310b08857f1"
         transform="translate(-149.228,-130.359)">
        <g
           transform="translate(148.712,134.765)"
           id="g9230">
          <path
             d="M 3.890625,-3.734375 C 3.625,-3.71875 3.421875,-3.5 3.421875,-3.28125 c 0,0.140625 0.09375,0.296875 0.3125,0.296875 0.21875,0 0.453125,-0.171875 0.453125,-0.5625 C 4.1875,-4 3.765625,-4.40625 3,-4.40625 c -1.3125,0 -1.6875,1.015625 -1.6875,1.453125 0,0.78125 0.734375,0.921875 1.03125,0.984375 0.515625,0.109375 1.03125,0.21875 1.03125,0.765625 0,0.25 -0.21875,1.09375 -1.421875,1.09375 -0.140625,0 -0.90625,0 -1.140625,-0.53125 0.390625,0.046875 0.640625,-0.25 0.640625,-0.53125 0,-0.21875 -0.171875,-0.34375 -0.375,-0.34375 -0.265625,0 -0.5625,0.203125 -0.5625,0.65625 0,0.5625 0.578125,0.96875 1.421875,0.96875 1.625,0 2.015625,-1.203125 2.015625,-1.65625 0,-0.359375 -0.1875,-0.609375 -0.3125,-0.71875 -0.265625,-0.28125 -0.5625,-0.34375 -1,-0.421875 -0.359375,-0.078125 -0.75,-0.15625 -0.75,-0.609375 C 1.890625,-3.578125 2.125,-4.1875 3,-4.1875 c 0.25,0 0.75,0.078125 0.890625,0.453125 z m 0,0"
             id="id-625ce1f0-e2b4-44d9-8c75-6e984e9a1694" />
        </g>
      </g>
      <g
         fill="#000000"
         fill-opacity="1"
         id="id-d582c72d-f29e-4f4f-abde-8c01fdce51ff"
         transform="translate(-149.228,-130.359)">
        <g
           transform="translate(153.382,136.259)"
           id="g1564">
          <path
             d="m 1.90625,-2.328125 c 0.546875,0 0.9375,0.375 0.9375,1.125 0,0.859375 -0.515625,1.125 -0.90625,1.125 -0.28125,0 -0.90625,-0.078125 -1.1875,-0.5 0.328125,0 0.40625,-0.234375 0.40625,-0.390625 0,-0.21875 -0.171875,-0.375 -0.390625,-0.375 -0.1875,0 -0.390625,0.125 -0.390625,0.40625 0,0.65625 0.71875,1.078125 1.5625,1.078125 0.96875,0 1.640625,-0.65625 1.640625,-1.34375 0,-0.546875 -0.4375,-1.09375 -1.203125,-1.25 0.71875,-0.265625 0.984375,-0.78125 0.984375,-1.21875 0,-0.546875 -0.625,-0.953125 -1.40625,-0.953125 -0.765625,0 -1.359375,0.375 -1.359375,0.9375 0,0.234375 0.15625,0.359375 0.359375,0.359375 0.21875,0 0.359375,-0.15625 0.359375,-0.34375 0,-0.203125 -0.140625,-0.359375 -0.359375,-0.375 0.25,-0.296875 0.71875,-0.375 0.984375,-0.375 0.3125,0 0.75,0.15625 0.75,0.75 0,0.296875 -0.09375,0.625 -0.28125,0.828125 -0.21875,0.265625 -0.421875,0.28125 -0.765625,0.3125 -0.171875,0.015625 -0.1875,0.015625 -0.21875,0.015625 -0.015625,0 -0.078125,0.015625 -0.078125,0.09375 0,0.09375 0.0625,0.09375 0.1875,0.09375 z m 0,0"
             id="id-57152c18-62ef-4b33-8346-eee7c512febd" />
        </g>
      </g>
    </g>
    <g
       transform="matrix(4.3603,0,0,4.3603,677.14277,135.07904)"
       ns3:version="1.10.2"
       ns3:texconverter="pdflatex"
       ns3:pdfconverter="inkscape"
       ns3:text="$s_4$"
       ns3:preamble="/Users/alansun/Library/Application Support/org.inkscape.Inkscape/config/inkscape/extensions/textext/default_packages.tex"
       ns3:scale="3.2702357037909495"
       ns3:alignment="middle center"
       ns3:stroke-to-path="0"
       id="g5444"
       ns3:jacobian_sqrt="4.3603">
      <defs
         id="id-0fd550aa-50fc-4a85-a521-6f11ce9649ce">
        <g
           id="id-31908770-b8e9-41aa-a548-a07caacbe78a">
          <g
             id="id-ad937f74-1176-48d8-a867-00c593195b3d">
            <path
               d="M 3.890625,-3.734375 C 3.625,-3.71875 3.421875,-3.5 3.421875,-3.28125 c 0,0.140625 0.09375,0.296875 0.3125,0.296875 0.21875,0 0.453125,-0.171875 0.453125,-0.5625 C 4.1875,-4 3.765625,-4.40625 3,-4.40625 c -1.3125,0 -1.6875,1.015625 -1.6875,1.453125 0,0.78125 0.734375,0.921875 1.03125,0.984375 0.515625,0.109375 1.03125,0.21875 1.03125,0.765625 0,0.25 -0.21875,1.09375 -1.421875,1.09375 -0.140625,0 -0.90625,0 -1.140625,-0.53125 0.390625,0.046875 0.640625,-0.25 0.640625,-0.53125 0,-0.21875 -0.171875,-0.34375 -0.375,-0.34375 -0.265625,0 -0.5625,0.203125 -0.5625,0.65625 0,0.5625 0.578125,0.96875 1.421875,0.96875 1.625,0 2.015625,-1.203125 2.015625,-1.65625 0,-0.359375 -0.1875,-0.609375 -0.3125,-0.71875 -0.265625,-0.28125 -0.5625,-0.34375 -1,-0.421875 -0.359375,-0.078125 -0.75,-0.15625 -0.75,-0.609375 C 1.890625,-3.578125 2.125,-4.1875 3,-4.1875 c 0.25,0 0.75,0.078125 0.890625,0.453125 z m 0,0"
               id="id-718fc25b-a357-411a-96aa-c5731bb5ce72" />
          </g>
          <g
             id="id-38d279c2-9e1b-4d44-995e-c1e1c98c5e54">
            <path
               d="m 3.6875,-1.140625 v -0.25 H 2.90625 V -4.5 c 0,-0.140625 0,-0.203125 -0.140625,-0.203125 -0.09375,0 -0.125,0 -0.1875,0.109375 l -2.3125,3.203125 v 0.25 h 2.0625 v 0.5625 c 0,0.25 0,0.328125 -0.578125,0.328125 H 1.5625 V 0 C 1.921875,-0.015625 2.359375,-0.03125 2.609375,-0.03125 2.875,-0.03125 3.3125,-0.015625 3.671875,0 v -0.25 h -0.1875 C 2.90625,-0.25 2.90625,-0.328125 2.90625,-0.578125 v -0.5625 z M 2.375,-3.9375 v 2.546875 H 0.53125 Z m 0,0"
               id="id-f571399c-23ac-40a6-a0ea-c3de89e1e114" />
          </g>
        </g>
      </defs>
      <g
         fill="#000000"
         fill-opacity="1"
         id="id-dc472550-9e55-42ce-ade5-1288db2d6d0c"
         transform="translate(-149.228,-130.359)">
        <g
           transform="translate(148.712,134.765)"
           id="g1451">
          <path
             d="M 3.890625,-3.734375 C 3.625,-3.71875 3.421875,-3.5 3.421875,-3.28125 c 0,0.140625 0.09375,0.296875 0.3125,0.296875 0.21875,0 0.453125,-0.171875 0.453125,-0.5625 C 4.1875,-4 3.765625,-4.40625 3,-4.40625 c -1.3125,0 -1.6875,1.015625 -1.6875,1.453125 0,0.78125 0.734375,0.921875 1.03125,0.984375 0.515625,0.109375 1.03125,0.21875 1.03125,0.765625 0,0.25 -0.21875,1.09375 -1.421875,1.09375 -0.140625,0 -0.90625,0 -1.140625,-0.53125 0.390625,0.046875 0.640625,-0.25 0.640625,-0.53125 0,-0.21875 -0.171875,-0.34375 -0.375,-0.34375 -0.265625,0 -0.5625,0.203125 -0.5625,0.65625 0,0.5625 0.578125,0.96875 1.421875,0.96875 1.625,0 2.015625,-1.203125 2.015625,-1.65625 0,-0.359375 -0.1875,-0.609375 -0.3125,-0.71875 -0.265625,-0.28125 -0.5625,-0.34375 -1,-0.421875 -0.359375,-0.078125 -0.75,-0.15625 -0.75,-0.609375 C 1.890625,-3.578125 2.125,-4.1875 3,-4.1875 c 0.25,0 0.75,0.078125 0.890625,0.453125 z m 0,0"
             id="id-ab041191-74cb-47e0-ad1d-9835373f6b82" />
        </g>
      </g>
      <g
         fill="#000000"
         fill-opacity="1"
         id="id-44c09ec1-8fa6-46f5-a61d-158d58cff4d3"
         transform="translate(-149.228,-130.359)">
        <g
           transform="translate(153.382,136.259)"
           id="g2541">
          <path
             d="m 3.6875,-1.140625 v -0.25 H 2.90625 V -4.5 c 0,-0.140625 0,-0.203125 -0.140625,-0.203125 -0.09375,0 -0.125,0 -0.1875,0.109375 l -2.3125,3.203125 v 0.25 h 2.0625 v 0.5625 c 0,0.25 0,0.328125 -0.578125,0.328125 H 1.5625 V 0 C 1.921875,-0.015625 2.359375,-0.03125 2.609375,-0.03125 2.875,-0.03125 3.3125,-0.015625 3.671875,0 v -0.25 h -0.1875 C 2.90625,-0.25 2.90625,-0.328125 2.90625,-0.578125 v -0.5625 z M 2.375,-3.9375 v 2.546875 H 0.53125 Z m 0,0"
             id="id-146143c5-1201-4006-b00f-9aebb5e03169" />
        </g>
      </g>
    </g>
    <g
       transform="matrix(4.3603,0,0,4.3603,380.68739,205.44874)"
       ns3:version="1.10.2"
       ns3:texconverter="pdflatex"
       ns3:pdfconverter="inkscape"
       ns3:text="$s_5$"
       ns3:preamble="/Users/alansun/Library/Application Support/org.inkscape.Inkscape/config/inkscape/extensions/textext/default_packages.tex"
       ns3:scale="3.2702357037909495"
       ns3:alignment="middle center"
       ns3:stroke-to-path="0"
       id="g8751"
       ns3:jacobian_sqrt="4.3603">
      <defs
         id="id-8a8ed734-fa15-4aa0-8c5a-7df966016164">
        <g
           id="id-140a3be0-6b9d-4416-a9be-213a3c4be155">
          <g
             id="id-d084b735-d1c4-406c-881d-c4762f0def9c">
            <path
               d="M 3.890625,-3.734375 C 3.625,-3.71875 3.421875,-3.5 3.421875,-3.28125 c 0,0.140625 0.09375,0.296875 0.3125,0.296875 0.21875,0 0.453125,-0.171875 0.453125,-0.5625 C 4.1875,-4 3.765625,-4.40625 3,-4.40625 c -1.3125,0 -1.6875,1.015625 -1.6875,1.453125 0,0.78125 0.734375,0.921875 1.03125,0.984375 0.515625,0.109375 1.03125,0.21875 1.03125,0.765625 0,0.25 -0.21875,1.09375 -1.421875,1.09375 -0.140625,0 -0.90625,0 -1.140625,-0.53125 0.390625,0.046875 0.640625,-0.25 0.640625,-0.53125 0,-0.21875 -0.171875,-0.34375 -0.375,-0.34375 -0.265625,0 -0.5625,0.203125 -0.5625,0.65625 0,0.5625 0.578125,0.96875 1.421875,0.96875 1.625,0 2.015625,-1.203125 2.015625,-1.65625 0,-0.359375 -0.1875,-0.609375 -0.3125,-0.71875 -0.265625,-0.28125 -0.5625,-0.34375 -1,-0.421875 -0.359375,-0.078125 -0.75,-0.15625 -0.75,-0.609375 C 1.890625,-3.578125 2.125,-4.1875 3,-4.1875 c 0.25,0 0.75,0.078125 0.890625,0.453125 z m 0,0"
               id="id-a502f0dd-1382-4a9c-a616-a20ec7be8371" />
          </g>
          <g
             id="id-e70570ba-223b-4b0f-a4cc-9ef9e7533885">
            <path
               d="m 1.078125,-3.890625 c 0.359375,0.09375 0.5625,0.09375 0.671875,0.09375 0.921875,0 1.46875,-0.625 1.46875,-0.734375 0,-0.078125 -0.046875,-0.09375 -0.078125,-0.09375 -0.015625,0 -0.03125,0 -0.0625,0.015625 -0.171875,0.0625 -0.53125,0.203125 -1.046875,0.203125 -0.203125,0 -0.5625,-0.015625 -1.015625,-0.1875 C 0.9375,-4.625 0.921875,-4.625 0.921875,-4.625 c -0.09375,0 -0.09375,0.078125 -0.09375,0.1875 v 2.046875 c 0,0.125 0,0.203125 0.109375,0.203125 0.0625,0 0.078125,0 0.140625,-0.09375 0.296875,-0.375 0.734375,-0.4375 0.96875,-0.4375 0.421875,0 0.609375,0.328125 0.640625,0.390625 0.125,0.234375 0.171875,0.5 0.171875,0.90625 0,0.203125 0,0.609375 -0.21875,0.921875 -0.171875,0.25 -0.46875,0.421875 -0.8125,0.421875 -0.453125,0 -0.921875,-0.25 -1.09375,-0.71875 0.265625,0.015625 0.40625,-0.15625 0.40625,-0.34375 0,-0.296875 -0.265625,-0.34375 -0.359375,-0.34375 0,0 -0.34375,0 -0.34375,0.375 0,0.625 0.578125,1.25 1.40625,1.25 0.890625,0 1.671875,-0.65625 1.671875,-1.546875 0,-0.78125 -0.59375,-1.5 -1.453125,-1.5 -0.3125,0 -0.671875,0.0625 -0.984375,0.328125 z m 0,0"
               id="id-3497c0bf-a428-4fa6-9e1d-ecfff363e059" />
          </g>
        </g>
      </defs>
      <g
         fill="#000000"
         fill-opacity="1"
         id="id-40b64192-d966-43e8-bd0a-b58cb0272537"
         transform="translate(-149.228,-130.359)">
        <g
           transform="translate(148.712,134.765)"
           id="g2315">
          <path
             d="M 3.890625,-3.734375 C 3.625,-3.71875 3.421875,-3.5 3.421875,-3.28125 c 0,0.140625 0.09375,0.296875 0.3125,0.296875 0.21875,0 0.453125,-0.171875 0.453125,-0.5625 C 4.1875,-4 3.765625,-4.40625 3,-4.40625 c -1.3125,0 -1.6875,1.015625 -1.6875,1.453125 0,0.78125 0.734375,0.921875 1.03125,0.984375 0.515625,0.109375 1.03125,0.21875 1.03125,0.765625 0,0.25 -0.21875,1.09375 -1.421875,1.09375 -0.140625,0 -0.90625,0 -1.140625,-0.53125 0.390625,0.046875 0.640625,-0.25 0.640625,-0.53125 0,-0.21875 -0.171875,-0.34375 -0.375,-0.34375 -0.265625,0 -0.5625,0.203125 -0.5625,0.65625 0,0.5625 0.578125,0.96875 1.421875,0.96875 1.625,0 2.015625,-1.203125 2.015625,-1.65625 0,-0.359375 -0.1875,-0.609375 -0.3125,-0.71875 -0.265625,-0.28125 -0.5625,-0.34375 -1,-0.421875 -0.359375,-0.078125 -0.75,-0.15625 -0.75,-0.609375 C 1.890625,-3.578125 2.125,-4.1875 3,-4.1875 c 0.25,0 0.75,0.078125 0.890625,0.453125 z m 0,0"
             id="id-298cc9cc-1906-468d-8849-764ad6c1cd8d" />
        </g>
      </g>
      <g
         fill="#000000"
         fill-opacity="1"
         id="id-0902bbef-3990-4d65-88d4-7869a6a9c46f"
         transform="translate(-149.228,-130.359)">
        <g
           transform="translate(153.382,136.259)"
           id="g8074">
          <path
             d="m 1.078125,-3.890625 c 0.359375,0.09375 0.5625,0.09375 0.671875,0.09375 0.921875,0 1.46875,-0.625 1.46875,-0.734375 0,-0.078125 -0.046875,-0.09375 -0.078125,-0.09375 -0.015625,0 -0.03125,0 -0.0625,0.015625 -0.171875,0.0625 -0.53125,0.203125 -1.046875,0.203125 -0.203125,0 -0.5625,-0.015625 -1.015625,-0.1875 C 0.9375,-4.625 0.921875,-4.625 0.921875,-4.625 c -0.09375,0 -0.09375,0.078125 -0.09375,0.1875 v 2.046875 c 0,0.125 0,0.203125 0.109375,0.203125 0.0625,0 0.078125,0 0.140625,-0.09375 0.296875,-0.375 0.734375,-0.4375 0.96875,-0.4375 0.421875,0 0.609375,0.328125 0.640625,0.390625 0.125,0.234375 0.171875,0.5 0.171875,0.90625 0,0.203125 0,0.609375 -0.21875,0.921875 -0.171875,0.25 -0.46875,0.421875 -0.8125,0.421875 -0.453125,0 -0.921875,-0.25 -1.09375,-0.71875 0.265625,0.015625 0.40625,-0.15625 0.40625,-0.34375 0,-0.296875 -0.265625,-0.34375 -0.359375,-0.34375 0,0 -0.34375,0 -0.34375,0.375 0,0.625 0.578125,1.25 1.40625,1.25 0.890625,0 1.671875,-0.65625 1.671875,-1.546875 0,-0.78125 -0.59375,-1.5 -1.453125,-1.5 -0.3125,0 -0.671875,0.0625 -0.984375,0.328125 z m 0,0"
             id="id-18878ca8-cb0a-45f5-9468-3544aa40f330" />
        </g>
      </g>
    </g>
    <g
       id="g14"
       inkscape:label="Contour"
       mask="none"
       clip-path="url(#clipPath16)"
       style="opacity:0.5"
       transform="matrix(0.98530447,0,0,0.98521638,6.2277689,2.8131376)">
      <ellipse
         style="fill:none;fill-opacity:1;fill-rule:evenodd;stroke:#777777;stroke-width:1.51181;stroke-linejoin:bevel;stroke-dasharray:none;stroke-opacity:1"
         id="path13"
         cx="503.02814"
         cy="283.7872"
         rx="21.996212"
         ry="11.178403" />
      <ellipse
         style="fill:none;fill-opacity:1;fill-rule:evenodd;stroke:#777777;stroke-width:1.73504;stroke-linejoin:bevel;stroke-dasharray:none;stroke-opacity:1"
         id="path13-0"
         cx="502.78317"
         cy="284.07199"
         rx="41.149879"
         ry="22.399014" />
      <ellipse
         style="fill:none;fill-opacity:1;fill-rule:evenodd;stroke:#777777;stroke-width:2.06362;stroke-linejoin:bevel;stroke-dasharray:none;stroke-opacity:1"
         id="path13-0-6"
         cx="503.75745"
         cy="284.9769"
         rx="86.386284"
         ry="45.27861" />
      <ellipse
         style="fill:none;fill-opacity:1;fill-rule:evenodd;stroke:#777777;stroke-width:1.93134;stroke-linejoin:bevel;stroke-dasharray:none;stroke-opacity:1"
         id="path13-0-6-4"
         cx="503.32635"
         cy="287.27841"
         rx="144.6521"
         ry="75.215454" />
      <ellipse
         style="fill:none;fill-opacity:1;fill-rule:evenodd;stroke:#777777;stroke-width:2.75945;stroke-linejoin:bevel;stroke-dasharray:none;stroke-opacity:1"
         id="path13-0-6-4-4"
         cx="507.66141"
         cy="284.57269"
         rx="204.7242"
         ry="108.48989" />
      <ellipse
         style="fill:none;fill-opacity:1;fill-rule:evenodd;stroke:#777777;stroke-width:2.51339;stroke-linejoin:bevel;stroke-dasharray:none;stroke-opacity:1"
         id="path13-0-6-4-4-8"
         cx="512.07764"
         cy="281.88705"
         rx="281.60989"
         ry="137.90543" />
    </g>
    <rect
       style="fill:url(#linearGradient8);fill-rule:evenodd;stroke:#000000;stroke-width:2.41014;stroke-linejoin:bevel;stroke-dasharray:none"
       id="rect6"
       width="31.83692"
       height="31.83692"
       x="395.23587"
       y="620.04987" />
    <rect
       style="fill:none;fill-opacity:0.996078;fill-rule:evenodd;stroke:#000000;stroke-width:2.41014;stroke-linejoin:bevel;stroke-dasharray:none"
       id="rect6-6"
       width="31.83692"
       height="31.83692"
       x="394.9859"
       y="667.65704" />
    <rect
       style="fill:none;fill-opacity:0.996078;fill-rule:evenodd;stroke:#000000;stroke-width:2.41014;stroke-linejoin:bevel;stroke-dasharray:none"
       id="rect6-6-3"
       width="31.83692"
       height="31.83692"
       x="395.02603"
       y="714.13843" />
    <text
       xml:space="preserve"
       style="font-weight:bold;font-size:5.33333px;line-height:1;font-family:'Helvetica Neue';-inkscape-font-specification:'Helvetica Neue Bold';fill:none;fill-opacity:0.996078;fill-rule:evenodd;stroke:#000000;stroke-width:3.40157;stroke-linejoin:bevel;stroke-dasharray:none"
       x="247.04172"
       y="650.37512"
       id="text8"><tspan
         sodipodi:role="line"
         id="tspan8" /></text>
    <text
       xml:space="preserve"
       style="font-weight:bold;font-size:26.6667px;line-height:1;font-family:'Helvetica Neue';-inkscape-font-specification:'Helvetica Neue Bold';fill:none;fill-opacity:0.996078;fill-rule:evenodd;stroke:#000000;stroke-width:0;stroke-linejoin:bevel;stroke-dasharray:none"
       x="445.38495"
       y="646.43634"
       id="text9"><tspan
         sodipodi:role="line"
         id="tspan9"
         x="445.38495"
         y="646.43634"
         style="font-style:normal;font-variant:normal;font-weight:normal;font-stretch:normal;font-size:26.6667px;font-family:Arial;-inkscape-font-specification:'Arial Bold';fill:#000000;fill-opacity:1;stroke-width:0;stroke-dasharray:none">Data distribution</tspan></text>
    <text
       xml:space="preserve"
       style="font-weight:bold;font-size:26.6667px;line-height:1;font-family:'Helvetica Neue';-inkscape-font-specification:'Helvetica Neue Bold';fill:none;fill-opacity:0.996078;fill-rule:evenodd;stroke:#000000;stroke-width:0;stroke-linejoin:bevel;stroke-dasharray:none"
       x="445.55719"
       y="692.54053"
       id="text9-4"><tspan
         sodipodi:role="line"
         id="tspan9-1"
         x="445.55719"
         y="692.54053"
         style="font-style:normal;font-variant:normal;font-weight:normal;font-stretch:normal;font-size:26.6667px;font-family:Arial;-inkscape-font-specification:'Arial Bold';fill:#000000;fill-opacity:1;stroke-width:0;stroke-dasharray:none"><tspan
   style="font-weight:bold"
   id="tspan12">S</tspan>ubtask distribution</tspan></text>
    <text
       xml:space="preserve"
       style="font-weight:bold;font-size:26.6667px;line-height:1;font-family:'Helvetica Neue';-inkscape-font-specification:'Helvetica Neue Bold';fill:none;fill-opacity:0.996078;fill-rule:evenodd;stroke:#000000;stroke-width:0;stroke-linejoin:bevel;stroke-dasharray:none"
       x="447.17587"
       y="738.70557"
       id="text9-4-2"><tspan
         sodipodi:role="line"
         id="tspan9-1-5"
         x="447.17587"
         y="738.70557"
         style="font-style:normal;font-variant:normal;font-weight:normal;font-stretch:normal;font-size:26.6667px;font-family:Arial;-inkscape-font-specification:'Arial Bold';fill:#000000;fill-opacity:1;stroke-width:0;stroke-dasharray:none"><tspan
   style="font-weight:bold"
   id="tspan13">P</tspan>artition distribution</tspan></text>
    <text
       xml:space="preserve"
       style="font-weight:bold;font-size:26.6667px;line-height:1;font-family:'Helvetica Neue';-inkscape-font-specification:'Helvetica Neue Bold';fill:none;fill-opacity:0.996078;fill-rule:evenodd;stroke:#000000;stroke-width:0;stroke-linejoin:bevel;stroke-dasharray:none"
       x="445.38495"
       y="646.43634"
       id="text10"><tspan
         sodipodi:role="line"
         id="tspan10"
         x="445.38495"
         y="646.43634"
         style="font-style:normal;font-variant:normal;font-weight:normal;font-stretch:normal;font-size:26.6667px;font-family:Arial;-inkscape-font-specification:'Arial Bold';fill:#000000;fill-opacity:1;stroke-width:0;stroke-dasharray:none"><tspan
   style="font-weight:bold"
   id="tspan11">D</tspan>ata distribution</tspan></text>
    <g
       id="g21"
       clip-path="url(#clipPath21)"
       transform="matrix(0.90019157,0,0,0.91313513,41.34815,58.697097)">
      <ellipse
         style="opacity:0.5;fill:none;fill-opacity:1;fill-rule:evenodd;stroke:#777777;stroke-width:1.37953;stroke-linejoin:round;stroke-dasharray:none;stroke-opacity:1"
         id="path18"
         cx="411.28888"
         cy="680.76782"
         rx="10.272217"
         ry="4.4023786" />
      <ellipse
         style="opacity:0.5;fill:none;fill-opacity:1;fill-rule:evenodd;stroke:#777777;stroke-width:1.37953;stroke-linejoin:round;stroke-dasharray:none;stroke-opacity:1"
         id="path19"
         cx="407.95374"
         cy="680.76782"
         rx="19.744001"
         ry="6.8036761" />
      <ellipse
         style="opacity:0.5;fill:none;fill-opacity:1;fill-rule:evenodd;stroke:#777777;stroke-width:1.37953;stroke-linejoin:round;stroke-dasharray:none;stroke-opacity:1"
         id="path20"
         cx="408.88757"
         cy="681.70166"
         rx="28.415352"
         ry="10.939243" />
      <ellipse
         style="opacity:0.5;fill:none;fill-opacity:1;fill-rule:evenodd;stroke:#777777;stroke-width:1.37953;stroke-linejoin:round;stroke-dasharray:none;stroke-opacity:1"
         id="path21"
         cx="405.41904"
         cy="681.03461"
         rx="39.087784"
         ry="17.209297" />
    </g>
    <g
       transform="matrix(2.7927218,0,0,2.7927218,400.99292,718.9196)"
       ns3:version="1.10.2"
       ns3:texconverter="pdflatex"
       ns3:pdfconverter="inkscape"
       ns3:text="$\\%$"
       ns3:preamble="/Users/alansun/Library/Application Support/org.inkscape.Inkscape/config/inkscape/extensions/textext/default_packages.tex"
       ns3:scale="3.2702357037909495"
       ns3:alignment="middle center"
       ns3:stroke-to-path="0"
       id="g4758"
       ns3:jacobian_sqrt="4.3603">
      <defs
         id="id-7da75855-97ac-4057-b99d-bed1c4f8f1ed">
        <g
           id="id-59ba3812-9deb-473b-9cf1-7a1c62474c29">
          <g
             id="id-1c09895d-2c9f-4a7f-a873-576e31cc2f25">
            <path
               d="m 6.828125,-7.09375 c 0.0625,-0.09375 0.078125,-0.125 0.078125,-0.1875 0,-0.109375 -0.09375,-0.203125 -0.203125,-0.203125 -0.09375,0 -0.140625,0.078125 -0.203125,0.140625 -0.5,0.6875 -1.171875,0.953125 -1.890625,0.953125 -0.703125,0 -1.3125,-0.25 -1.875,-0.765625 -0.1875,-0.171875 -0.390625,-0.328125 -0.703125,-0.328125 -0.765625,0 -1.46875,0.84375 -1.46875,2.015625 0,1.203125 0.71875,2.015625 1.46875,2.015625 0.71875,0 1.28125,-0.890625 1.28125,-2.015625 0,-0.140625 0,-0.609375 -0.203125,-1.125 0.65625,0.375 1.140625,0.421875 1.5,0.421875 0.765625,0 1.265625,-0.3125 1.328125,-0.34375 H 5.953125 L 1.46875,0.15625 c -0.078125,0.140625 -0.078125,0.1875 -0.078125,0.203125 0,0.109375 0.09375,0.203125 0.1875,0.203125 0.109375,0 0.125,-0.046875 0.203125,-0.15625 z M 2.03125,-3.671875 c -0.203125,0 -0.859375,-0.140625 -0.859375,-1.796875 0,-1.65625 0.65625,-1.78125 0.859375,-1.78125 0.53125,0 1.046875,0.734375 1.046875,1.78125 0,1.078125 -0.53125,1.796875 -1.046875,1.796875 z M 6.453125,0.34375 C 6.25,0.34375 5.59375,0.203125 5.59375,-1.453125 c 0,-1.65625 0.640625,-1.78125 0.859375,-1.78125 0.53125,0 1.03125,0.734375 1.03125,1.78125 0,1.078125 -0.515625,1.796875 -1.03125,1.796875 z m 1.28125,-1.796875 c 0,-1.140625 -0.59375,-2 -1.296875,-2 -0.75,0 -1.46875,0.828125 -1.46875,2 0,1.203125 0.71875,2.015625 1.46875,2.015625 0.734375,0 1.296875,-0.890625 1.296875,-2.015625 z m 0,0"
               id="id-1ae630f3-f328-43de-a195-55a0772004f0" />
          </g>
        </g>
      </defs>
      <g
         fill="#000000"
         fill-opacity="1"
         id="id-a9f88d49-69b1-4325-9ea9-49761ff65908"
         transform="translate(-149.275,-127.281)">
        <g
           transform="translate(148.712,134.765)"
           id="g7293">
          <path
             d="m 6.828125,-7.09375 c 0.0625,-0.09375 0.078125,-0.125 0.078125,-0.1875 0,-0.109375 -0.09375,-0.203125 -0.203125,-0.203125 -0.09375,0 -0.140625,0.078125 -0.203125,0.140625 -0.5,0.6875 -1.171875,0.953125 -1.890625,0.953125 -0.703125,0 -1.3125,-0.25 -1.875,-0.765625 -0.1875,-0.171875 -0.390625,-0.328125 -0.703125,-0.328125 -0.765625,0 -1.46875,0.84375 -1.46875,2.015625 0,1.203125 0.71875,2.015625 1.46875,2.015625 0.71875,0 1.28125,-0.890625 1.28125,-2.015625 0,-0.140625 0,-0.609375 -0.203125,-1.125 0.65625,0.375 1.140625,0.421875 1.5,0.421875 0.765625,0 1.265625,-0.3125 1.328125,-0.34375 H 5.953125 L 1.46875,0.15625 c -0.078125,0.140625 -0.078125,0.1875 -0.078125,0.203125 0,0.109375 0.09375,0.203125 0.1875,0.203125 0.109375,0 0.125,-0.046875 0.203125,-0.15625 z M 2.03125,-3.671875 c -0.203125,0 -0.859375,-0.140625 -0.859375,-1.796875 0,-1.65625 0.65625,-1.78125 0.859375,-1.78125 0.53125,0 1.046875,0.734375 1.046875,1.78125 0,1.078125 -0.53125,1.796875 -1.046875,1.796875 z M 6.453125,0.34375 C 6.25,0.34375 5.59375,0.203125 5.59375,-1.453125 c 0,-1.65625 0.640625,-1.78125 0.859375,-1.78125 0.53125,0 1.03125,0.734375 1.03125,1.78125 0,1.078125 -0.515625,1.796875 -1.03125,1.796875 z m 1.28125,-1.796875 c 0,-1.140625 -0.59375,-2 -1.296875,-2 -0.75,0 -1.46875,0.828125 -1.46875,2 0,1.203125 0.71875,2.015625 1.46875,2.015625 0.734375,0 1.296875,-0.890625 1.296875,-2.015625 z m 0,0"
             id="id-620d72e8-2594-45ab-abb8-3f830dc8b570" />
        </g>
      </g>
    </g>
    <g
       transform="matrix(2.1364343,0,0,2.1364343,773.58936,400.33195)"
       ns3:version="1.10.2"
       ns3:texconverter="pdflatex"
       ns3:pdfconverter="inkscape"
       ns3:text="$75\\%$"
       ns3:preamble="/Users/alansun/Library/Application Support/org.inkscape.Inkscape/config/inkscape/extensions/textext/default_packages.tex"
       ns3:scale="3.2702357037909495"
       ns3:alignment="middle center"
       ns3:stroke-to-path="0"
       ns3:inkscapeversion="1.3.2"
       id="g8747"
       ns3:jacobian_sqrt="4.3603">
      <defs
         id="id-3343928b-b58f-41f4-8c08-aad7cdfe61b2">
        <g
           id="id-aad22130-8778-4a3e-ac2d-38f87adc514b">
          <g
             id="id-6f5edf89-3bcd-463e-8085-881596297345">
            <path
               d="m 4.75,-6.078125 c 0.078125,-0.109375 0.078125,-0.125 0.078125,-0.34375 H 2.40625 c -1.203125,0 -1.234375,-0.125 -1.265625,-0.3125 h -0.25 L 0.5625,-4.6875 h 0.25 c 0.03125,-0.15625 0.109375,-0.78125 0.25,-0.90625 0.0625,-0.0625 0.84375,-0.0625 0.96875,-0.0625 h 2.0625 C 3.984375,-5.5 3.203125,-4.40625 2.984375,-4.078125 2.078125,-2.734375 1.75,-1.34375 1.75,-0.328125 c 0,0.09375 0,0.546875 0.46875,0.546875 0.453125,0 0.453125,-0.453125 0.453125,-0.546875 V -0.84375 c 0,-0.546875 0.03125,-1.09375 0.109375,-1.625 0.046875,-0.234375 0.171875,-1.09375 0.625,-1.703125 z m 0,0"
               id="id-5fe5e976-8e6f-4df3-b9a2-17746d16e64b" />
          </g>
          <g
             id="id-e3116751-f814-409b-b070-eccd9fd614da">
            <path
               d="m 4.46875,-2 c 0,-1.1875 -0.8125,-2.1875 -1.890625,-2.1875 -0.46875,0 -0.90625,0.15625 -1.265625,0.515625 V -5.625 c 0.203125,0.0625 0.53125,0.125 0.84375,0.125 1.234375,0 1.9375,-0.90625 1.9375,-1.03125 0,-0.0625 -0.03125,-0.109375 -0.109375,-0.109375 0,0 -0.03125,0 -0.078125,0.03125 C 3.703125,-6.515625 3.21875,-6.3125 2.546875,-6.3125 2.15625,-6.3125 1.6875,-6.390625 1.21875,-6.59375 1.140625,-6.625 1.125,-6.625 1.109375,-6.625 1,-6.625 1,-6.546875 1,-6.390625 V -3.4375 c 0,0.171875 0,0.25 0.140625,0.25 0.078125,0 0.09375,-0.015625 0.140625,-0.078125 C 1.390625,-3.421875 1.75,-3.96875 2.5625,-3.96875 c 0.515625,0 0.765625,0.453125 0.84375,0.640625 0.15625,0.375 0.1875,0.75 0.1875,1.25 0,0.359375 0,0.953125 -0.25,1.375 C 3.109375,-0.3125 2.734375,-0.0625 2.28125,-0.0625 c -0.71875,0 -1.296875,-0.53125 -1.46875,-1.109375 0.03125,0 0.0625,0.015625 0.171875,0.015625 0.328125,0 0.5,-0.25 0.5,-0.484375 0,-0.25 -0.171875,-0.5 -0.5,-0.5 C 0.84375,-2.140625 0.5,-2.0625 0.5,-1.609375 0.5,-0.75 1.1875,0.21875 2.296875,0.21875 3.453125,0.21875 4.46875,-0.734375 4.46875,-2 Z m 0,0"
               id="id-33f48dd4-d8bb-4872-8b5b-d505c821de70" />
          </g>
          <g
             id="id-f71fbc11-dde9-47f8-9029-f377199ecaa0">
            <path
               d="m 6.828125,-7.09375 c 0.0625,-0.09375 0.078125,-0.125 0.078125,-0.1875 0,-0.109375 -0.09375,-0.203125 -0.203125,-0.203125 -0.09375,0 -0.140625,0.078125 -0.203125,0.140625 -0.5,0.6875 -1.171875,0.953125 -1.890625,0.953125 -0.703125,0 -1.3125,-0.25 -1.875,-0.765625 -0.1875,-0.171875 -0.390625,-0.328125 -0.703125,-0.328125 -0.765625,0 -1.46875,0.84375 -1.46875,2.015625 0,1.203125 0.71875,2.015625 1.46875,2.015625 0.71875,0 1.28125,-0.890625 1.28125,-2.015625 0,-0.140625 0,-0.609375 -0.203125,-1.125 0.65625,0.375 1.140625,0.421875 1.5,0.421875 0.765625,0 1.265625,-0.3125 1.328125,-0.34375 H 5.953125 L 1.46875,0.15625 c -0.078125,0.140625 -0.078125,0.1875 -0.078125,0.203125 0,0.109375 0.09375,0.203125 0.1875,0.203125 0.109375,0 0.125,-0.046875 0.203125,-0.15625 z M 2.03125,-3.671875 c -0.203125,0 -0.859375,-0.140625 -0.859375,-1.796875 0,-1.65625 0.65625,-1.78125 0.859375,-1.78125 0.53125,0 1.046875,0.734375 1.046875,1.78125 0,1.078125 -0.53125,1.796875 -1.046875,1.796875 z M 6.453125,0.34375 C 6.25,0.34375 5.59375,0.203125 5.59375,-1.453125 c 0,-1.65625 0.640625,-1.78125 0.859375,-1.78125 0.53125,0 1.03125,0.734375 1.03125,1.78125 0,1.078125 -0.515625,1.796875 -1.03125,1.796875 z m 1.28125,-1.796875 c 0,-1.140625 -0.59375,-2 -1.296875,-2 -0.75,0 -1.46875,0.828125 -1.46875,2 0,1.203125 0.71875,2.015625 1.46875,2.015625 0.734375,0 1.296875,-0.890625 1.296875,-2.015625 z m 0,0"
               id="id-7822eee4-a8ce-44e7-a892-bc041ab68802" />
          </g>
        </g>
      </defs>
      <g
         fill="#000000"
         fill-opacity="1"
         id="id-28d45c1e-5f25-4602-af31-a7699718b821"
         transform="translate(-149.275,-127.281)">
        <g
           transform="translate(148.712,134.765)"
           id="g7552">
          <path
             d="m 4.75,-6.078125 c 0.078125,-0.109375 0.078125,-0.125 0.078125,-0.34375 H 2.40625 c -1.203125,0 -1.234375,-0.125 -1.265625,-0.3125 h -0.25 L 0.5625,-4.6875 h 0.25 c 0.03125,-0.15625 0.109375,-0.78125 0.25,-0.90625 0.0625,-0.0625 0.84375,-0.0625 0.96875,-0.0625 h 2.0625 C 3.984375,-5.5 3.203125,-4.40625 2.984375,-4.078125 2.078125,-2.734375 1.75,-1.34375 1.75,-0.328125 c 0,0.09375 0,0.546875 0.46875,0.546875 0.453125,0 0.453125,-0.453125 0.453125,-0.546875 V -0.84375 c 0,-0.546875 0.03125,-1.09375 0.109375,-1.625 0.046875,-0.234375 0.171875,-1.09375 0.625,-1.703125 z m 0,0"
             id="id-decec6bb-3b1c-4218-8234-da9050a5ac80" />
        </g>
        <g
           transform="translate(153.693,134.765)"
           id="g7917">
          <path
             d="m 4.46875,-2 c 0,-1.1875 -0.8125,-2.1875 -1.890625,-2.1875 -0.46875,0 -0.90625,0.15625 -1.265625,0.515625 V -5.625 c 0.203125,0.0625 0.53125,0.125 0.84375,0.125 1.234375,0 1.9375,-0.90625 1.9375,-1.03125 0,-0.0625 -0.03125,-0.109375 -0.109375,-0.109375 0,0 -0.03125,0 -0.078125,0.03125 C 3.703125,-6.515625 3.21875,-6.3125 2.546875,-6.3125 2.15625,-6.3125 1.6875,-6.390625 1.21875,-6.59375 1.140625,-6.625 1.125,-6.625 1.109375,-6.625 1,-6.625 1,-6.546875 1,-6.390625 V -3.4375 c 0,0.171875 0,0.25 0.140625,0.25 0.078125,0 0.09375,-0.015625 0.140625,-0.078125 C 1.390625,-3.421875 1.75,-3.96875 2.5625,-3.96875 c 0.515625,0 0.765625,0.453125 0.84375,0.640625 0.15625,0.375 0.1875,0.75 0.1875,1.25 0,0.359375 0,0.953125 -0.25,1.375 C 3.109375,-0.3125 2.734375,-0.0625 2.28125,-0.0625 c -0.71875,0 -1.296875,-0.53125 -1.46875,-1.109375 0.03125,0 0.0625,0.015625 0.171875,0.015625 0.328125,0 0.5,-0.25 0.5,-0.484375 0,-0.25 -0.171875,-0.5 -0.5,-0.5 C 0.84375,-2.140625 0.5,-2.0625 0.5,-1.609375 0.5,-0.75 1.1875,0.21875 2.296875,0.21875 3.453125,0.21875 4.46875,-0.734375 4.46875,-2 Z m 0,0"
             id="id-7eb89e78-b600-4fda-93c3-3953c8d468b3" />
        </g>
        <g
           transform="translate(158.675,134.765)"
           id="g9551">
          <path
             d="m 6.828125,-7.09375 c 0.0625,-0.09375 0.078125,-0.125 0.078125,-0.1875 0,-0.109375 -0.09375,-0.203125 -0.203125,-0.203125 -0.09375,0 -0.140625,0.078125 -0.203125,0.140625 -0.5,0.6875 -1.171875,0.953125 -1.890625,0.953125 -0.703125,0 -1.3125,-0.25 -1.875,-0.765625 -0.1875,-0.171875 -0.390625,-0.328125 -0.703125,-0.328125 -0.765625,0 -1.46875,0.84375 -1.46875,2.015625 0,1.203125 0.71875,2.015625 1.46875,2.015625 0.71875,0 1.28125,-0.890625 1.28125,-2.015625 0,-0.140625 0,-0.609375 -0.203125,-1.125 0.65625,0.375 1.140625,0.421875 1.5,0.421875 0.765625,0 1.265625,-0.3125 1.328125,-0.34375 H 5.953125 L 1.46875,0.15625 c -0.078125,0.140625 -0.078125,0.1875 -0.078125,0.203125 0,0.109375 0.09375,0.203125 0.1875,0.203125 0.109375,0 0.125,-0.046875 0.203125,-0.15625 z M 2.03125,-3.671875 c -0.203125,0 -0.859375,-0.140625 -0.859375,-1.796875 0,-1.65625 0.65625,-1.78125 0.859375,-1.78125 0.53125,0 1.046875,0.734375 1.046875,1.78125 0,1.078125 -0.53125,1.796875 -1.046875,1.796875 z M 6.453125,0.34375 C 6.25,0.34375 5.59375,0.203125 5.59375,-1.453125 c 0,-1.65625 0.640625,-1.78125 0.859375,-1.78125 0.53125,0 1.03125,0.734375 1.03125,1.78125 0,1.078125 -0.515625,1.796875 -1.03125,1.796875 z m 1.28125,-1.796875 c 0,-1.140625 -0.59375,-2 -1.296875,-2 -0.75,0 -1.46875,0.828125 -1.46875,2 0,1.203125 0.71875,2.015625 1.46875,2.015625 0.734375,0 1.296875,-0.890625 1.296875,-2.015625 z m 0,0"
             id="id-9ef6cdab-addb-4674-b49d-2919332c42ae" />
        </g>
      </g>
    </g>
    <g
       transform="matrix(2.1677897,0,0,2.1677897,681.34634,167.54256)"
       ns3:version="1.10.2"
       ns3:texconverter="pdflatex"
       ns3:pdfconverter="inkscape"
       ns3:text="$5\\%$"
       ns3:preamble="/Users/alansun/Library/Application Support/org.inkscape.Inkscape/config/inkscape/extensions/textext/default_packages.tex"
       ns3:scale="3.2702357037909495"
       ns3:alignment="middle center"
       ns3:stroke-to-path="0"
       ns3:inkscapeversion="1.3.2"
       id="g9383"
       ns3:jacobian_sqrt="4.3603">
      <defs
         id="id-0c69bbc0-0ad8-40fb-ae5c-e1087c79ff6c">
        <g
           id="id-6d6b9f77-befc-448b-ae82-607095b6fff8">
          <g
             id="id-c47dfa2d-07a2-487c-b816-68afdd326649">
            <path
               d="m 4.46875,-2 c 0,-1.1875 -0.8125,-2.1875 -1.890625,-2.1875 -0.46875,0 -0.90625,0.15625 -1.265625,0.515625 V -5.625 c 0.203125,0.0625 0.53125,0.125 0.84375,0.125 1.234375,0 1.9375,-0.90625 1.9375,-1.03125 0,-0.0625 -0.03125,-0.109375 -0.109375,-0.109375 0,0 -0.03125,0 -0.078125,0.03125 C 3.703125,-6.515625 3.21875,-6.3125 2.546875,-6.3125 2.15625,-6.3125 1.6875,-6.390625 1.21875,-6.59375 1.140625,-6.625 1.125,-6.625 1.109375,-6.625 1,-6.625 1,-6.546875 1,-6.390625 V -3.4375 c 0,0.171875 0,0.25 0.140625,0.25 0.078125,0 0.09375,-0.015625 0.140625,-0.078125 C 1.390625,-3.421875 1.75,-3.96875 2.5625,-3.96875 c 0.515625,0 0.765625,0.453125 0.84375,0.640625 0.15625,0.375 0.1875,0.75 0.1875,1.25 0,0.359375 0,0.953125 -0.25,1.375 C 3.109375,-0.3125 2.734375,-0.0625 2.28125,-0.0625 c -0.71875,0 -1.296875,-0.53125 -1.46875,-1.109375 0.03125,0 0.0625,0.015625 0.171875,0.015625 0.328125,0 0.5,-0.25 0.5,-0.484375 0,-0.25 -0.171875,-0.5 -0.5,-0.5 C 0.84375,-2.140625 0.5,-2.0625 0.5,-1.609375 0.5,-0.75 1.1875,0.21875 2.296875,0.21875 3.453125,0.21875 4.46875,-0.734375 4.46875,-2 Z m 0,0"
               id="id-b9a98848-3198-499c-861a-f6d01c5d9a00" />
          </g>
          <g
             id="id-ce87b8d5-03a3-4bb1-899b-1d723d7eeb7a">
            <path
               d="m 6.828125,-7.09375 c 0.0625,-0.09375 0.078125,-0.125 0.078125,-0.1875 0,-0.109375 -0.09375,-0.203125 -0.203125,-0.203125 -0.09375,0 -0.140625,0.078125 -0.203125,0.140625 -0.5,0.6875 -1.171875,0.953125 -1.890625,0.953125 -0.703125,0 -1.3125,-0.25 -1.875,-0.765625 -0.1875,-0.171875 -0.390625,-0.328125 -0.703125,-0.328125 -0.765625,0 -1.46875,0.84375 -1.46875,2.015625 0,1.203125 0.71875,2.015625 1.46875,2.015625 0.71875,0 1.28125,-0.890625 1.28125,-2.015625 0,-0.140625 0,-0.609375 -0.203125,-1.125 0.65625,0.375 1.140625,0.421875 1.5,0.421875 0.765625,0 1.265625,-0.3125 1.328125,-0.34375 H 5.953125 L 1.46875,0.15625 c -0.078125,0.140625 -0.078125,0.1875 -0.078125,0.203125 0,0.109375 0.09375,0.203125 0.1875,0.203125 0.109375,0 0.125,-0.046875 0.203125,-0.15625 z M 2.03125,-3.671875 c -0.203125,0 -0.859375,-0.140625 -0.859375,-1.796875 0,-1.65625 0.65625,-1.78125 0.859375,-1.78125 0.53125,0 1.046875,0.734375 1.046875,1.78125 0,1.078125 -0.53125,1.796875 -1.046875,1.796875 z M 6.453125,0.34375 C 6.25,0.34375 5.59375,0.203125 5.59375,-1.453125 c 0,-1.65625 0.640625,-1.78125 0.859375,-1.78125 0.53125,0 1.03125,0.734375 1.03125,1.78125 0,1.078125 -0.515625,1.796875 -1.03125,1.796875 z m 1.28125,-1.796875 c 0,-1.140625 -0.59375,-2 -1.296875,-2 -0.75,0 -1.46875,0.828125 -1.46875,2 0,1.203125 0.71875,2.015625 1.46875,2.015625 0.734375,0 1.296875,-0.890625 1.296875,-2.015625 z m 0,0"
               id="id-ba6cb2f7-5863-4a38-bba9-797f5fb13ba1" />
          </g>
        </g>
      </defs>
      <g
         fill="#000000"
         fill-opacity="1"
         id="id-5734047f-6197-4dbe-a378-0e5b8c501c71"
         transform="translate(-149.212,-127.281)">
        <g
           transform="translate(148.712,134.765)"
           id="g6488">
          <path
             d="m 4.46875,-2 c 0,-1.1875 -0.8125,-2.1875 -1.890625,-2.1875 -0.46875,0 -0.90625,0.15625 -1.265625,0.515625 V -5.625 c 0.203125,0.0625 0.53125,0.125 0.84375,0.125 1.234375,0 1.9375,-0.90625 1.9375,-1.03125 0,-0.0625 -0.03125,-0.109375 -0.109375,-0.109375 0,0 -0.03125,0 -0.078125,0.03125 C 3.703125,-6.515625 3.21875,-6.3125 2.546875,-6.3125 2.15625,-6.3125 1.6875,-6.390625 1.21875,-6.59375 1.140625,-6.625 1.125,-6.625 1.109375,-6.625 1,-6.625 1,-6.546875 1,-6.390625 V -3.4375 c 0,0.171875 0,0.25 0.140625,0.25 0.078125,0 0.09375,-0.015625 0.140625,-0.078125 C 1.390625,-3.421875 1.75,-3.96875 2.5625,-3.96875 c 0.515625,0 0.765625,0.453125 0.84375,0.640625 0.15625,0.375 0.1875,0.75 0.1875,1.25 0,0.359375 0,0.953125 -0.25,1.375 C 3.109375,-0.3125 2.734375,-0.0625 2.28125,-0.0625 c -0.71875,0 -1.296875,-0.53125 -1.46875,-1.109375 0.03125,0 0.0625,0.015625 0.171875,0.015625 0.328125,0 0.5,-0.25 0.5,-0.484375 0,-0.25 -0.171875,-0.5 -0.5,-0.5 C 0.84375,-2.140625 0.5,-2.0625 0.5,-1.609375 0.5,-0.75 1.1875,0.21875 2.296875,0.21875 3.453125,0.21875 4.46875,-0.734375 4.46875,-2 Z m 0,0"
             id="id-52f25f34-76f0-403a-94c2-b290c5dc343f" />
        </g>
        <g
           transform="translate(153.693,134.765)"
           id="g9101">
          <path
             d="m 6.828125,-7.09375 c 0.0625,-0.09375 0.078125,-0.125 0.078125,-0.1875 0,-0.109375 -0.09375,-0.203125 -0.203125,-0.203125 -0.09375,0 -0.140625,0.078125 -0.203125,0.140625 -0.5,0.6875 -1.171875,0.953125 -1.890625,0.953125 -0.703125,0 -1.3125,-0.25 -1.875,-0.765625 -0.1875,-0.171875 -0.390625,-0.328125 -0.703125,-0.328125 -0.765625,0 -1.46875,0.84375 -1.46875,2.015625 0,1.203125 0.71875,2.015625 1.46875,2.015625 0.71875,0 1.28125,-0.890625 1.28125,-2.015625 0,-0.140625 0,-0.609375 -0.203125,-1.125 0.65625,0.375 1.140625,0.421875 1.5,0.421875 0.765625,0 1.265625,-0.3125 1.328125,-0.34375 H 5.953125 L 1.46875,0.15625 c -0.078125,0.140625 -0.078125,0.1875 -0.078125,0.203125 0,0.109375 0.09375,0.203125 0.1875,0.203125 0.109375,0 0.125,-0.046875 0.203125,-0.15625 z M 2.03125,-3.671875 c -0.203125,0 -0.859375,-0.140625 -0.859375,-1.796875 0,-1.65625 0.65625,-1.78125 0.859375,-1.78125 0.53125,0 1.046875,0.734375 1.046875,1.78125 0,1.078125 -0.53125,1.796875 -1.046875,1.796875 z M 6.453125,0.34375 C 6.25,0.34375 5.59375,0.203125 5.59375,-1.453125 c 0,-1.65625 0.640625,-1.78125 0.859375,-1.78125 0.53125,0 1.03125,0.734375 1.03125,1.78125 0,1.078125 -0.515625,1.796875 -1.03125,1.796875 z m 1.28125,-1.796875 c 0,-1.140625 -0.59375,-2 -1.296875,-2 -0.75,0 -1.46875,0.828125 -1.46875,2 0,1.203125 0.71875,2.015625 1.46875,2.015625 0.734375,0 1.296875,-0.890625 1.296875,-2.015625 z m 0,0"
             id="id-817f7eb7-2455-42d8-bd16-9c370a857698" />
        </g>
      </g>
    </g>
    <g
       transform="matrix(2.1639208,0,0,2.1639208,249.62486,389.45225)"
       ns3:version="1.10.2"
       ns3:texconverter="pdflatex"
       ns3:pdfconverter="inkscape"
       ns3:text="$1\\%$"
       ns3:preamble="/Users/alansun/Library/Application Support/org.inkscape.Inkscape/config/inkscape/extensions/textext/default_packages.tex"
       ns3:scale="3.2702357037909495"
       ns3:alignment="middle center"
       ns3:stroke-to-path="0"
       ns3:inkscapeversion="1.3.2"
       id="g4487"
       ns3:jacobian_sqrt="4.3603">
      <defs
         id="id-2e170090-0e35-47d4-9243-0fb7b930bb4b">
        <g
           id="id-d04acf0e-1b47-4801-8278-17ed5885443f">
          <g
             id="id-97aabc99-d9e0-4e95-8fbb-a012b7a842d9">
            <path
               d="m 2.9375,-6.375 c 0,-0.25 0,-0.265625 -0.234375,-0.265625 C 2.078125,-6 1.203125,-6 0.890625,-6 v 0.3125 c 0.203125,0 0.78125,0 1.296875,-0.265625 v 5.171875 c 0,0.359375 -0.03125,0.46875 -0.921875,0.46875 h -0.3125 V 0 c 0.34375,-0.03125 1.203125,-0.03125 1.609375,-0.03125 0.390625,0 1.265625,0 1.609375,0.03125 v -0.3125 h -0.3125 c -0.90625,0 -0.921875,-0.109375 -0.921875,-0.46875 z m 0,0"
               id="id-ad5847cf-0cd0-42a8-be56-d1867929cdaa" />
          </g>
          <g
             id="id-1a2eae86-4a05-4895-9456-c2df84aad320">
            <path
               d="m 6.828125,-7.09375 c 0.0625,-0.09375 0.078125,-0.125 0.078125,-0.1875 0,-0.109375 -0.09375,-0.203125 -0.203125,-0.203125 -0.09375,0 -0.140625,0.078125 -0.203125,0.140625 -0.5,0.6875 -1.171875,0.953125 -1.890625,0.953125 -0.703125,0 -1.3125,-0.25 -1.875,-0.765625 -0.1875,-0.171875 -0.390625,-0.328125 -0.703125,-0.328125 -0.765625,0 -1.46875,0.84375 -1.46875,2.015625 0,1.203125 0.71875,2.015625 1.46875,2.015625 0.71875,0 1.28125,-0.890625 1.28125,-2.015625 0,-0.140625 0,-0.609375 -0.203125,-1.125 0.65625,0.375 1.140625,0.421875 1.5,0.421875 0.765625,0 1.265625,-0.3125 1.328125,-0.34375 H 5.953125 L 1.46875,0.15625 c -0.078125,0.140625 -0.078125,0.1875 -0.078125,0.203125 0,0.109375 0.09375,0.203125 0.1875,0.203125 0.109375,0 0.125,-0.046875 0.203125,-0.15625 z M 2.03125,-3.671875 c -0.203125,0 -0.859375,-0.140625 -0.859375,-1.796875 0,-1.65625 0.65625,-1.78125 0.859375,-1.78125 0.53125,0 1.046875,0.734375 1.046875,1.78125 0,1.078125 -0.53125,1.796875 -1.046875,1.796875 z M 6.453125,0.34375 C 6.25,0.34375 5.59375,0.203125 5.59375,-1.453125 c 0,-1.65625 0.640625,-1.78125 0.859375,-1.78125 0.53125,0 1.03125,0.734375 1.03125,1.78125 0,1.078125 -0.515625,1.796875 -1.03125,1.796875 z m 1.28125,-1.796875 c 0,-1.140625 -0.59375,-2 -1.296875,-2 -0.75,0 -1.46875,0.828125 -1.46875,2 0,1.203125 0.71875,2.015625 1.46875,2.015625 0.734375,0 1.296875,-0.890625 1.296875,-2.015625 z m 0,0"
               id="id-3a0c3825-a3e4-40c8-8cb3-ff7a00a803b4" />
          </g>
        </g>
      </defs>
      <g
         fill="#000000"
         fill-opacity="1"
         id="id-1ee9f18e-483b-4a3a-a9d4-8b43fe40a0f1"
         transform="translate(-149.603,-127.281)">
        <g
           transform="translate(148.712,134.765)"
           id="g4460">
          <path
             d="m 2.9375,-6.375 c 0,-0.25 0,-0.265625 -0.234375,-0.265625 C 2.078125,-6 1.203125,-6 0.890625,-6 v 0.3125 c 0.203125,0 0.78125,0 1.296875,-0.265625 v 5.171875 c 0,0.359375 -0.03125,0.46875 -0.921875,0.46875 h -0.3125 V 0 c 0.34375,-0.03125 1.203125,-0.03125 1.609375,-0.03125 0.390625,0 1.265625,0 1.609375,0.03125 v -0.3125 h -0.3125 c -0.90625,0 -0.921875,-0.109375 -0.921875,-0.46875 z m 0,0"
             id="id-95d2e989-8b68-4341-bb36-f0e34dc4ed32" />
        </g>
        <g
           transform="translate(153.693,134.765)"
           id="g9070">
          <path
             d="m 6.828125,-7.09375 c 0.0625,-0.09375 0.078125,-0.125 0.078125,-0.1875 0,-0.109375 -0.09375,-0.203125 -0.203125,-0.203125 -0.09375,0 -0.140625,0.078125 -0.203125,0.140625 -0.5,0.6875 -1.171875,0.953125 -1.890625,0.953125 -0.703125,0 -1.3125,-0.25 -1.875,-0.765625 -0.1875,-0.171875 -0.390625,-0.328125 -0.703125,-0.328125 -0.765625,0 -1.46875,0.84375 -1.46875,2.015625 0,1.203125 0.71875,2.015625 1.46875,2.015625 0.71875,0 1.28125,-0.890625 1.28125,-2.015625 0,-0.140625 0,-0.609375 -0.203125,-1.125 0.65625,0.375 1.140625,0.421875 1.5,0.421875 0.765625,0 1.265625,-0.3125 1.328125,-0.34375 H 5.953125 L 1.46875,0.15625 c -0.078125,0.140625 -0.078125,0.1875 -0.078125,0.203125 0,0.109375 0.09375,0.203125 0.1875,0.203125 0.109375,0 0.125,-0.046875 0.203125,-0.15625 z M 2.03125,-3.671875 c -0.203125,0 -0.859375,-0.140625 -0.859375,-1.796875 0,-1.65625 0.65625,-1.78125 0.859375,-1.78125 0.53125,0 1.046875,0.734375 1.046875,1.78125 0,1.078125 -0.53125,1.796875 -1.046875,1.796875 z M 6.453125,0.34375 C 6.25,0.34375 5.59375,0.203125 5.59375,-1.453125 c 0,-1.65625 0.640625,-1.78125 0.859375,-1.78125 0.53125,0 1.03125,0.734375 1.03125,1.78125 0,1.078125 -0.515625,1.796875 -1.03125,1.796875 z m 1.28125,-1.796875 c 0,-1.140625 -0.59375,-2 -1.296875,-2 -0.75,0 -1.46875,0.828125 -1.46875,2 0,1.203125 0.71875,2.015625 1.46875,2.015625 0.734375,0 1.296875,-0.890625 1.296875,-2.015625 z m 0,0"
             id="id-6850ff44-f05f-4f41-a9ea-fce92e81eb20" />
        </g>
      </g>
    </g>
    <g
       transform="matrix(2.2608353,0,0,2.2608353,505.62566,556.21039)"
       ns3:version="1.10.2"
       ns3:texconverter="pdflatex"
       ns3:pdfconverter="inkscape"
       ns3:text="$13\\%$"
       ns3:preamble="/Users/alansun/Library/Application Support/org.inkscape.Inkscape/config/inkscape/extensions/textext/default_packages.tex"
       ns3:scale="3.2702357037909495"
       ns3:alignment="middle center"
       ns3:stroke-to-path="0"
       ns3:inkscapeversion="1.3.2"
       id="g4009"
       ns3:jacobian_sqrt="4.3603">
      <defs
         id="id-7bae77a7-9055-43b1-aac2-aff905e395c3">
        <g
           id="id-38adb9ce-e2f0-4780-abc7-f75264bdb722">
          <g
             id="id-cd9f257e-c401-443e-aab6-a0edad49cc67">
            <path
               d="m 2.9375,-6.375 c 0,-0.25 0,-0.265625 -0.234375,-0.265625 C 2.078125,-6 1.203125,-6 0.890625,-6 v 0.3125 c 0.203125,0 0.78125,0 1.296875,-0.265625 v 5.171875 c 0,0.359375 -0.03125,0.46875 -0.921875,0.46875 h -0.3125 V 0 c 0.34375,-0.03125 1.203125,-0.03125 1.609375,-0.03125 0.390625,0 1.265625,0 1.609375,0.03125 v -0.3125 h -0.3125 c -0.90625,0 -0.921875,-0.109375 -0.921875,-0.46875 z m 0,0"
               id="id-7865e3b5-bd72-4650-9fbe-3aa654125a36" />
          </g>
          <g
             id="id-21c4ae24-cab8-429b-86de-9d9bfa8bf41e">
            <path
               d="m 2.890625,-3.515625 c 0.8125,-0.265625 1.390625,-0.953125 1.390625,-1.75 0,-0.8125 -0.875,-1.375 -1.828125,-1.375 -1,0 -1.765625,0.59375 -1.765625,1.359375 0,0.328125 0.21875,0.515625 0.515625,0.515625 0.296875,0 0.5,-0.21875 0.5,-0.515625 0,-0.484375 -0.46875,-0.484375 -0.609375,-0.484375 0.296875,-0.5 0.953125,-0.625 1.3125,-0.625 0.421875,0 0.96875,0.21875 0.96875,1.109375 0,0.125 -0.03125,0.703125 -0.28125,1.140625 C 2.796875,-3.65625 2.453125,-3.625 2.203125,-3.625 2.125,-3.609375 1.890625,-3.59375 1.8125,-3.59375 c -0.078125,0.015625 -0.140625,0.03125 -0.140625,0.125 0,0.109375 0.0625,0.109375 0.234375,0.109375 h 0.4375 c 0.8125,0 1.1875,0.671875 1.1875,1.65625 0,1.359375 -0.6875,1.640625 -1.125,1.640625 -0.4375,0 -1.1875,-0.171875 -1.53125,-0.75 0.34375,0.046875 0.65625,-0.171875 0.65625,-0.546875 0,-0.359375 -0.265625,-0.5625 -0.546875,-0.5625 -0.25,0 -0.5625,0.140625 -0.5625,0.578125 0,0.90625 0.921875,1.5625 2.015625,1.5625 1.21875,0 2.125,-0.90625 2.125,-1.921875 0,-0.8125 -0.640625,-1.59375 -1.671875,-1.8125 z m 0,0"
               id="id-54e49dff-2327-4870-934a-4b8691fa4937" />
          </g>
          <g
             id="id-7b4dc9ac-d529-4bfb-ba57-f8a13945ae3f">
            <path
               d="m 6.828125,-7.09375 c 0.0625,-0.09375 0.078125,-0.125 0.078125,-0.1875 0,-0.109375 -0.09375,-0.203125 -0.203125,-0.203125 -0.09375,0 -0.140625,0.078125 -0.203125,0.140625 -0.5,0.6875 -1.171875,0.953125 -1.890625,0.953125 -0.703125,0 -1.3125,-0.25 -1.875,-0.765625 -0.1875,-0.171875 -0.390625,-0.328125 -0.703125,-0.328125 -0.765625,0 -1.46875,0.84375 -1.46875,2.015625 0,1.203125 0.71875,2.015625 1.46875,2.015625 0.71875,0 1.28125,-0.890625 1.28125,-2.015625 0,-0.140625 0,-0.609375 -0.203125,-1.125 0.65625,0.375 1.140625,0.421875 1.5,0.421875 0.765625,0 1.265625,-0.3125 1.328125,-0.34375 H 5.953125 L 1.46875,0.15625 c -0.078125,0.140625 -0.078125,0.1875 -0.078125,0.203125 0,0.109375 0.09375,0.203125 0.1875,0.203125 0.109375,0 0.125,-0.046875 0.203125,-0.15625 z M 2.03125,-3.671875 c -0.203125,0 -0.859375,-0.140625 -0.859375,-1.796875 0,-1.65625 0.65625,-1.78125 0.859375,-1.78125 0.53125,0 1.046875,0.734375 1.046875,1.78125 0,1.078125 -0.53125,1.796875 -1.046875,1.796875 z M 6.453125,0.34375 C 6.25,0.34375 5.59375,0.203125 5.59375,-1.453125 c 0,-1.65625 0.640625,-1.78125 0.859375,-1.78125 0.53125,0 1.03125,0.734375 1.03125,1.78125 0,1.078125 -0.515625,1.796875 -1.03125,1.796875 z m 1.28125,-1.796875 c 0,-1.140625 -0.59375,-2 -1.296875,-2 -0.75,0 -1.46875,0.828125 -1.46875,2 0,1.203125 0.71875,2.015625 1.46875,2.015625 0.734375,0 1.296875,-0.890625 1.296875,-2.015625 z m 0,0"
               id="id-e0b9ebe7-b446-49f4-ad13-4529d257c8b5" />
          </g>
        </g>
      </defs>
      <g
         fill="#000000"
         fill-opacity="1"
         id="id-632c0006-ecb2-4a0a-a8c8-dc02cdd2f6ab"
         transform="translate(-149.603,-127.281)">
        <g
           transform="translate(148.712,134.765)"
           id="g8359">
          <path
             d="m 2.9375,-6.375 c 0,-0.25 0,-0.265625 -0.234375,-0.265625 C 2.078125,-6 1.203125,-6 0.890625,-6 v 0.3125 c 0.203125,0 0.78125,0 1.296875,-0.265625 v 5.171875 c 0,0.359375 -0.03125,0.46875 -0.921875,0.46875 h -0.3125 V 0 c 0.34375,-0.03125 1.203125,-0.03125 1.609375,-0.03125 0.390625,0 1.265625,0 1.609375,0.03125 v -0.3125 h -0.3125 c -0.90625,0 -0.921875,-0.109375 -0.921875,-0.46875 z m 0,0"
             id="id-ab4d3997-f1b0-4722-bd16-743a5e95e9a5" />
        </g>
        <g
           transform="translate(153.693,134.765)"
           id="g1123">
          <path
             d="m 2.890625,-3.515625 c 0.8125,-0.265625 1.390625,-0.953125 1.390625,-1.75 0,-0.8125 -0.875,-1.375 -1.828125,-1.375 -1,0 -1.765625,0.59375 -1.765625,1.359375 0,0.328125 0.21875,0.515625 0.515625,0.515625 0.296875,0 0.5,-0.21875 0.5,-0.515625 0,-0.484375 -0.46875,-0.484375 -0.609375,-0.484375 0.296875,-0.5 0.953125,-0.625 1.3125,-0.625 0.421875,0 0.96875,0.21875 0.96875,1.109375 0,0.125 -0.03125,0.703125 -0.28125,1.140625 C 2.796875,-3.65625 2.453125,-3.625 2.203125,-3.625 2.125,-3.609375 1.890625,-3.59375 1.8125,-3.59375 c -0.078125,0.015625 -0.140625,0.03125 -0.140625,0.125 0,0.109375 0.0625,0.109375 0.234375,0.109375 h 0.4375 c 0.8125,0 1.1875,0.671875 1.1875,1.65625 0,1.359375 -0.6875,1.640625 -1.125,1.640625 -0.4375,0 -1.1875,-0.171875 -1.53125,-0.75 0.34375,0.046875 0.65625,-0.171875 0.65625,-0.546875 0,-0.359375 -0.265625,-0.5625 -0.546875,-0.5625 -0.25,0 -0.5625,0.140625 -0.5625,0.578125 0,0.90625 0.921875,1.5625 2.015625,1.5625 1.21875,0 2.125,-0.90625 2.125,-1.921875 0,-0.8125 -0.640625,-1.59375 -1.671875,-1.8125 z m 0,0"
             id="id-142322ec-afa4-4df6-99cb-a4a34f4d1c70" />
        </g>
        <g
           transform="translate(158.675,134.765)"
           id="g3874">
          <path
             d="m 6.828125,-7.09375 c 0.0625,-0.09375 0.078125,-0.125 0.078125,-0.1875 0,-0.109375 -0.09375,-0.203125 -0.203125,-0.203125 -0.09375,0 -0.140625,0.078125 -0.203125,0.140625 -0.5,0.6875 -1.171875,0.953125 -1.890625,0.953125 -0.703125,0 -1.3125,-0.25 -1.875,-0.765625 -0.1875,-0.171875 -0.390625,-0.328125 -0.703125,-0.328125 -0.765625,0 -1.46875,0.84375 -1.46875,2.015625 0,1.203125 0.71875,2.015625 1.46875,2.015625 0.71875,0 1.28125,-0.890625 1.28125,-2.015625 0,-0.140625 0,-0.609375 -0.203125,-1.125 0.65625,0.375 1.140625,0.421875 1.5,0.421875 0.765625,0 1.265625,-0.3125 1.328125,-0.34375 H 5.953125 L 1.46875,0.15625 c -0.078125,0.140625 -0.078125,0.1875 -0.078125,0.203125 0,0.109375 0.09375,0.203125 0.1875,0.203125 0.109375,0 0.125,-0.046875 0.203125,-0.15625 z M 2.03125,-3.671875 c -0.203125,0 -0.859375,-0.140625 -0.859375,-1.796875 0,-1.65625 0.65625,-1.78125 0.859375,-1.78125 0.53125,0 1.046875,0.734375 1.046875,1.78125 0,1.078125 -0.53125,1.796875 -1.046875,1.796875 z M 6.453125,0.34375 C 6.25,0.34375 5.59375,0.203125 5.59375,-1.453125 c 0,-1.65625 0.640625,-1.78125 0.859375,-1.78125 0.53125,0 1.03125,0.734375 1.03125,1.78125 0,1.078125 -0.515625,1.796875 -1.03125,1.796875 z m 1.28125,-1.796875 c 0,-1.140625 -0.59375,-2 -1.296875,-2 -0.75,0 -1.46875,0.828125 -1.46875,2 0,1.203125 0.71875,2.015625 1.46875,2.015625 0.734375,0 1.296875,-0.890625 1.296875,-2.015625 z m 0,0"
             id="id-8b3d70c1-cbc8-4354-8fc2-b42066f4b482" />
        </g>
      </g>
    </g>
    <g
       transform="matrix(2.3425656,0,0,2.3425656,384.45582,236.60447)"
       ns3:version="1.10.2"
       ns3:texconverter="pdflatex"
       ns3:pdfconverter="inkscape"
       ns3:text="$6\\%$"
       ns3:preamble="/Users/alansun/Library/Application Support/org.inkscape.Inkscape/config/inkscape/extensions/textext/default_packages.tex"
       ns3:scale="3.2702357037909495"
       ns3:alignment="middle center"
       ns3:stroke-to-path="0"
       ns3:inkscapeversion="1.3.2"
       id="g2422"
       ns3:jacobian_sqrt="4.3603">
      <defs
         id="id-6c7ccf74-e9ea-4007-b7ca-7691aca9edf2">
        <g
           id="id-a20d8aa9-882c-485d-9c9f-f070081b49e1">
          <g
             id="id-a1f525f5-4add-4ef0-b3bf-57b915935752">
            <path
               d="m 1.3125,-3.265625 v -0.25 c 0,-2.515625 1.234375,-2.875 1.75,-2.875 0.234375,0 0.65625,0.0625 0.875,0.40625 -0.15625,0 -0.546875,0 -0.546875,0.4375 0,0.3125 0.234375,0.46875 0.453125,0.46875 0.15625,0 0.46875,-0.09375 0.46875,-0.484375 0,-0.59375 -0.4375,-1.078125 -1.265625,-1.078125 -1.28125,0 -2.625,1.28125 -2.625,3.484375 0,2.671875 1.15625,3.375 2.078125,3.375 1.109375,0 2.0625,-0.9375 2.0625,-2.25 0,-1.265625 -0.890625,-2.21875 -2,-2.21875 -0.671875,0 -1.046875,0.5 -1.25,0.984375 z M 2.5,-0.0625 c -0.625,0 -0.921875,-0.59375 -0.984375,-0.75 -0.1875,-0.46875 -0.1875,-1.265625 -0.1875,-1.4375 0,-0.78125 0.328125,-1.78125 1.21875,-1.78125 0.171875,0 0.625,0 0.9375,0.625 0.171875,0.359375 0.171875,0.875 0.171875,1.359375 0,0.484375 0,0.984375 -0.171875,1.34375 C 3.1875,-0.109375 2.734375,-0.0625 2.5,-0.0625 Z m 0,0"
               id="id-6ae87bd8-5159-4d2e-ae60-87e6721d44b4" />
          </g>
          <g
             id="id-40329fd3-a79d-4a3b-8ec1-6bdc0251ffae">
            <path
               d="m 6.828125,-7.09375 c 0.0625,-0.09375 0.078125,-0.125 0.078125,-0.1875 0,-0.109375 -0.09375,-0.203125 -0.203125,-0.203125 -0.09375,0 -0.140625,0.078125 -0.203125,0.140625 -0.5,0.6875 -1.171875,0.953125 -1.890625,0.953125 -0.703125,0 -1.3125,-0.25 -1.875,-0.765625 -0.1875,-0.171875 -0.390625,-0.328125 -0.703125,-0.328125 -0.765625,0 -1.46875,0.84375 -1.46875,2.015625 0,1.203125 0.71875,2.015625 1.46875,2.015625 0.71875,0 1.28125,-0.890625 1.28125,-2.015625 0,-0.140625 0,-0.609375 -0.203125,-1.125 0.65625,0.375 1.140625,0.421875 1.5,0.421875 0.765625,0 1.265625,-0.3125 1.328125,-0.34375 H 5.953125 L 1.46875,0.15625 c -0.078125,0.140625 -0.078125,0.1875 -0.078125,0.203125 0,0.109375 0.09375,0.203125 0.1875,0.203125 0.109375,0 0.125,-0.046875 0.203125,-0.15625 z M 2.03125,-3.671875 c -0.203125,0 -0.859375,-0.140625 -0.859375,-1.796875 0,-1.65625 0.65625,-1.78125 0.859375,-1.78125 0.53125,0 1.046875,0.734375 1.046875,1.78125 0,1.078125 -0.53125,1.796875 -1.046875,1.796875 z M 6.453125,0.34375 C 6.25,0.34375 5.59375,0.203125 5.59375,-1.453125 c 0,-1.65625 0.640625,-1.78125 0.859375,-1.78125 0.53125,0 1.03125,0.734375 1.03125,1.78125 0,1.078125 -0.515625,1.796875 -1.03125,1.796875 z m 1.28125,-1.796875 c 0,-1.140625 -0.59375,-2 -1.296875,-2 -0.75,0 -1.46875,0.828125 -1.46875,2 0,1.203125 0.71875,2.015625 1.46875,2.015625 0.734375,0 1.296875,-0.890625 1.296875,-2.015625 z m 0,0"
               id="id-519d6b94-2e79-4924-8052-a6ea414d3018" />
          </g>
        </g>
      </defs>
      <g
         fill="#000000"
         fill-opacity="1"
         id="id-a217b111-46ab-417c-88ef-fee3aa8ef37a"
         transform="translate(-149.134,-127.281)">
        <g
           transform="translate(148.712,134.765)"
           id="g211">
          <path
             d="m 1.3125,-3.265625 v -0.25 c 0,-2.515625 1.234375,-2.875 1.75,-2.875 0.234375,0 0.65625,0.0625 0.875,0.40625 -0.15625,0 -0.546875,0 -0.546875,0.4375 0,0.3125 0.234375,0.46875 0.453125,0.46875 0.15625,0 0.46875,-0.09375 0.46875,-0.484375 0,-0.59375 -0.4375,-1.078125 -1.265625,-1.078125 -1.28125,0 -2.625,1.28125 -2.625,3.484375 0,2.671875 1.15625,3.375 2.078125,3.375 1.109375,0 2.0625,-0.9375 2.0625,-2.25 0,-1.265625 -0.890625,-2.21875 -2,-2.21875 -0.671875,0 -1.046875,0.5 -1.25,0.984375 z M 2.5,-0.0625 c -0.625,0 -0.921875,-0.59375 -0.984375,-0.75 -0.1875,-0.46875 -0.1875,-1.265625 -0.1875,-1.4375 0,-0.78125 0.328125,-1.78125 1.21875,-1.78125 0.171875,0 0.625,0 0.9375,0.625 0.171875,0.359375 0.171875,0.875 0.171875,1.359375 0,0.484375 0,0.984375 -0.171875,1.34375 C 3.1875,-0.109375 2.734375,-0.0625 2.5,-0.0625 Z m 0,0"
             id="id-9be76937-3c8b-40a3-8006-275180eac4ec" />
        </g>
        <g
           transform="translate(153.693,134.765)"
           id="g5048">
          <path
             d="m 6.828125,-7.09375 c 0.0625,-0.09375 0.078125,-0.125 0.078125,-0.1875 0,-0.109375 -0.09375,-0.203125 -0.203125,-0.203125 -0.09375,0 -0.140625,0.078125 -0.203125,0.140625 -0.5,0.6875 -1.171875,0.953125 -1.890625,0.953125 -0.703125,0 -1.3125,-0.25 -1.875,-0.765625 -0.1875,-0.171875 -0.390625,-0.328125 -0.703125,-0.328125 -0.765625,0 -1.46875,0.84375 -1.46875,2.015625 0,1.203125 0.71875,2.015625 1.46875,2.015625 0.71875,0 1.28125,-0.890625 1.28125,-2.015625 0,-0.140625 0,-0.609375 -0.203125,-1.125 0.65625,0.375 1.140625,0.421875 1.5,0.421875 0.765625,0 1.265625,-0.3125 1.328125,-0.34375 H 5.953125 L 1.46875,0.15625 c -0.078125,0.140625 -0.078125,0.1875 -0.078125,0.203125 0,0.109375 0.09375,0.203125 0.1875,0.203125 0.109375,0 0.125,-0.046875 0.203125,-0.15625 z M 2.03125,-3.671875 c -0.203125,0 -0.859375,-0.140625 -0.859375,-1.796875 0,-1.65625 0.65625,-1.78125 0.859375,-1.78125 0.53125,0 1.046875,0.734375 1.046875,1.78125 0,1.078125 -0.53125,1.796875 -1.046875,1.796875 z M 6.453125,0.34375 C 6.25,0.34375 5.59375,0.203125 5.59375,-1.453125 c 0,-1.65625 0.640625,-1.78125 0.859375,-1.78125 0.53125,0 1.03125,0.734375 1.03125,1.78125 0,1.078125 -0.515625,1.796875 -1.03125,1.796875 z m 1.28125,-1.796875 c 0,-1.140625 -0.59375,-2 -1.296875,-2 -0.75,0 -1.46875,0.828125 -1.46875,2 0,1.203125 0.71875,2.015625 1.46875,2.015625 0.734375,0 1.296875,-0.890625 1.296875,-2.015625 z m 0,0"
             id="id-11304fd1-31fd-4e09-bffd-aba9452ace02" />
        </g>
      </g>
    </g>
  </g>
</svg>
